<?xml version="1.0" encoding="UTF-8" standalone="no"?>
<svg
   version="1.1"
   id="Layer_1"
   x="0px"
   y="0px"
   width="2208.7544"
   viewBox="0 0 2208.7544 986.97858"
   enable-background="new 0 0 2408 1912"
   xml:space="preserve"
   sodipodi:docname="logo.svg"
   inkscape:version="1.3 (0e150ed, 2023-07-21)"
   height="986.97858"
   xmlns:inkscape="http://www.inkscape.org/namespaces/inkscape"
   xmlns:sodipodi="http://sodipodi.sourceforge.net/DTD/sodipodi-0.dtd"
   xmlns="http://www.w3.org/2000/svg"
   xmlns:svg="http://www.w3.org/2000/svg"><defs
   id="defs13" /><sodipodi:namedview
   id="namedview13"
   pagecolor="#ffffff"
   bordercolor="#000000"
   borderopacity="0.25"
   inkscape:showpageshadow="2"
   inkscape:pageopacity="0.0"
   inkscape:pagecheckerboard="0"
   inkscape:deskcolor="#d1d1d1"
   inkscape:zoom="0.31185156"
   inkscape:cx="1248.9917"
   inkscape:cy="755.16699"
   inkscape:window-width="1472"
   inkscape:window-height="986"
   inkscape:window-x="38"
   inkscape:window-y="25"
   inkscape:window-maximized="0"
   inkscape:current-layer="layer5" />&#10;&#10;<path
   fill="#cc1d00"
   opacity="1"
   stroke="none"
   d="m 1121.2723,98.782335 c 7.4086,0.99041 23.8817,8.018465 43.9207,20.360405 12.9189,8.18627 25.128,17.70886 37.6002,26.7272 9.1997,6.65204 18.3395,13.40237 27.6842,20.44127 6.4227,5.34314 13.2206,9.66487 17.6104,16.98448 3.3678,6.20957 6.7245,12.40205 8.4797,19.47421 0.8928,3.59753 1.3892,7.03361 1.0496,10.85988 -0.5671,6.39431 -0.3148,12.87292 -0.4545,19.31485 -0.3636,16.76837 -0.6611,33.53927 -1.155,50.30323 -0.6026,20.45223 -1.4502,40.89581 -2.057,61.34791 -0.4858,16.37464 -0.7614,32.75657 -1.1476,49.13479 -0.2526,10.70862 -3.2458,19.94336 -12.0352,25.92077 -4.9374,3.35778 -10.2739,5.61368 -16.1735,5.42588 -10.0008,-0.31825 -19.9925,-0.99276 -29.9937,-1.27664 -7.8737,-0.22346 -15.2992,0.25105 -23.1724,0.46299 -4.2714,0.11497 -7.8565,0.25081 -10.7571,3.81158 -1.7564,2.15617 -1.8506,5.94899 -1.8284,8.86701 0.2283,30.04872 -0.9462,66.62775 -0.7619,96.67681 0.072,11.71196 0.088,16.89431 0.098,28.60661 0.016,18.36389 -0.03,36.72814 0.012,55.09204 0.099,43.36438 0.1827,86.72888 0.3698,130.09288 0.165,38.2562 0.4496,76.5119 0.7073,114.7675 0.07,10.3484 0.1036,20.7011 0.4452,31.0404 0.085,2.5733 0.9684,5.2897 2.0627,7.6173 3.7345,7.9421 9.0679,14.9205 11.3161,23.78 3.0269,11.9292 3.9086,23.9485 0.1894,35.6665 -1.8261,5.753 -5.3042,11.0155 -8.6607,15.9989 -1.5673,2.3271 -4.4759,3.8122 -7.0282,5.0743 -7.7131,3.814 -15.6885,6.0638 -24.3669,5.5507 -8.7528,-0.5176 -17.5543,-0.2695 -26.3287,-0.068 -7.9765,0.183 -15.3302,-1.4155 -22.7773,-5.0111 -6.6065,-3.1897 -11.9527,-7.8737 -16.9108,-12.9894 -6.1301,-6.3249 -8.507,-15.0048 -7.4428,-24.099 1.2177,-10.4046 2.432,-20.9202 6.3909,-30.6761 0.9304,-2.2927 1.977,-4.6544 3.4514,-6.5359 4.0921,-5.222 6.2166,-10.8582 6.2107,-17.9747 -0.1225,-150.2332 -0.093,-300.46655 -0.093,-450.70001 v -2.34431 c -0.036,-8.31743 -1.6095,-10.06623 -10.3121,-10.44321 -19.2819,-0.0272 -37.7017,-0.20072 -56.1211,-0.13986 -4.4696,0.0148 -8.4371,-1.43497 -12.28551,-3.51733 -9.9344,-5.37549 -14.7885,-14.79039 -17.1727,-26.10602 -0.2744,-13.60602 -0.5504,-27.21204 -0.8209,-40.81814 -0.035,-1.75295 -0.048,-3.50648 -0.061,-5.25986 -0.1232,-18.31221 -0.1654,-36.62553 -0.385,-54.93635 -0.2756,-22.96729 -0.6717,-45.93302 -1.0695,-68.89832 -0.1178,-6.79523 -0.4166,-13.58674 -0.3447,-21.22302 0.2067,-2.93075 1.1585,-9.53832 1.4214,-10.45222 3.8801,-13.48315 11.2281,-17.1086 22.02491,-24.9225 3.1107,-2.25126 6.114,-4.67891 9.5045,-7.12978 3.2456,-2.32978 6.1329,-4.58794 9.0644,-6.77583 15.5528,-11.60809 31.1166,-23.19854 47.0308,-34.9546 10.3635,-6.13838 36.8507,-22.106375 48.0169,-22.148095 M 999.40009,304.72399 c 0.2379,7.59674 0.5199,15.19226 0.70471,22.79054 0.3936,16.18855 0.7354,32.3786 1.1013,48.56792 0.1147,5.07444 0.1527,10.15324 0.3819,15.22164 0.2522,5.57208 3.0928,9.05177 8.1157,9.89703 2.2878,0.385 4.639,0.4367 6.9619,0.44189 15.9498,0.0357 31.9009,0.1449 47.8491,-0.0313 8.6443,-0.0956 16.1792,2.69551 22.0492,9.57667 5.0481,5.91751 8.6074,12.56262 8.6188,21.29419 0.087,66.99914 0.4655,133.99775 0.6137,200.99691 0.1933,87.33801 -2.1295,174.17461 -1.7804,261.51161 0.032,7.8609 0.1055,14.296 -4.5305,19.9484 -7.8971,9.6281 -10.4785,20.8512 -7.9588,33.6648 1.3523,6.8772 5.0823,10.9492 10.586,13.6401 1.4567,0.7123 3.016,1.3009 4.5835,1.5975 13.9896,2.6473 28.0531,4.0068 42.0338,0.3584 15.8523,-4.1367 17.6547,-16.431 14.4366,-31.4596 -1.5397,-7.1903 -5.9135,-13.4108 -11.6764,-17.7967 -2.9062,-2.212 -3.4975,-4.8319 -3.4655,-8.4586 0.3473,-39.4564 0.625,-78.9143 0.7641,-118.3723 0.1964,-55.6889 0.2186,-111.3785 0.3926,-167.06767 0.1537,-49.22328 0.4211,-98.44604 0.6215,-147.6691 0.057,-14.0699 0.04,-28.14022 0.1002,-42.2101 0.01,-1.93807 -0.1837,-4.08404 0.4796,-5.7786 4.6165,-11.79076 13.0891,-20.22598 25.451,-21.26927 10.151,-0.85671 20.3579,-1.02149 30.5447,-1.24335 8.957,-0.19515 17.9213,0.0319 26.8808,-0.0741 5.5767,-0.066 9.2105,-3.52975 9.4229,-8.88886 0.324,-8.18169 0.5237,-16.36956 0.7475,-24.55567 0.3678,-13.45297 0.7616,-26.90541 1.0562,-40.36038 0.5212,-23.79549 0.9836,-47.59253 1.4516,-71.38937 0.092,-4.68708 0.03,-9.37836 0.1585,-14.06391 0.2654,-9.74612 0.725,-19.48802 0.8462,-29.23547 0.034,-2.64953 -0.4486,-5.50202 -1.3988,-7.93393 -2.7741,-7.10046 -6.5087,-13.40992 -13.2702,-16.93639 -2.5698,-1.34024 -4.9258,-3.18259 -7.3342,-4.8727 -6.4551,-4.53031 -13.0042,-8.91732 -19.2908,-13.71266 -5.5649,-4.245 -10.6368,-9.26979 -16.2639,-13.40441 -10.0743,-7.40245 -20.4568,-14.30395 -30.6068,-21.58696 -8.1045,-5.81539 -12.6392,-9.02885 -22.6805,-10.60348 -5.1976,-0.81509 -12.6178,-0.47109 -18.0833,0.18366 -6.4045,0.76724 -14.3274,3.62375 -19.6133,7.70571 -12.2621,9.46896 -24.5293,18.93015 -36.7729,28.42743 -13.9773,10.84193 -27.8464,21.85279 -41.9393,32.51215 -5.1977,3.93135 -7.89,6.94618 -10.89491,12.72628 -0.82,1.57707 -1.8719,5.9606 -1.8217,7.8338 0.2189,8.18156 0.7531,16.35325 0.962,24.53489 0.5476,21.45571 0.985,42.91475 1.4666,65.54333 z"
   id="path2"
   sodipodi:nodetypes="cssccscssssssssscsscssscssssssssssscsccsscscssccscsccsssssssssscssssssscssscsssssscscssscssssssssscsss"
   style="stroke-width:0.561436" />&#10;&#10;&#10;&#10;&#10;&#10;&#10;&#10;&#10;&#10;&#10;&#10;<ellipse
   style="fill:none"
   id="path13"
   cx="854.47101"
   cy="18.476212"
   rx="0.08633744"
   ry="18.476212" /><path
   style="fill:none"
   d="m 854.55733,20.202955 c 0.17702,-0.10202 0.20458,-1.41331 0.34535,-1.55408 0.0407,-0.0407 0.13197,0.0407 0.17267,0 0.0863,-0.0863 -0.0863,-0.43168 0,-0.51802 0.0407,-0.0407 0.13198,0.0407 0.17268,0 0.0814,-0.0814 -0.0515,-0.24239 0,-0.34535 0.0364,-0.0728 0.13627,-0.0999 0.17267,-0.17267 0.12042,-0.24083 0.0523,-0.62255 0.17268,-0.86338 0.32535,-0.65071 0.71069,-1.24871 1.03605,-1.89942 0.0515,-0.10297 -0.0364,-0.23614 0,-0.34535 0.14959,-0.44878 0.32463,-0.82194 0.51802,-1.20873 0.12042,-0.24083 0.0523,-0.62254 0.17268,-0.86337 0.15428,-0.30857 0.66847,-1.3814 1.03605,-1.3814"
   id="path16" /><g
   inkscape:groupmode="layer"
   id="layer4"
   inkscape:label="Layer 1"
   transform="translate(-97.22661,-363.65331)" /><g
   inkscape:groupmode="layer"
   id="layer5"
   inkscape:label="Layer 2"
   transform="translate(-97.22661,-363.65331)"><path
     fill="#cd1e02"
     opacity="1"
     stroke="none"
     d="M 2305.9811,1129.4224 H 98.17118 c 13.84297,-24.2956 39.52762,-66.5048 85.44375,-141.10266 3.47614,-5.64747 3.60478,-9.64365 -0.25878,-15.50637 C 171.53678,954.87759 105.86926,855.12181 97.22661,838.66939 H 2304.9033 c -22.3156,37.06832 -47.52,72.78772 -71.6578,108.79985 -5.4479,8.12475 -11.2267,15.97408 -16.6722,24.10099 -2.7637,4.12451 -4.9494,8.22525 -1.362,13.67645 m -823.3422,26.69742 c -0.8728,-2.0938 -1.9283,-4.1184 -2.5905,-6.2918 -7.6518,-25.11496 -15.234,-50.25628 -22.8558,-75.3826 -4.1359,-13.63467 -8.3125,-27.25399 -12.4053,-40.66524 h -23.2812 v 193.83614 h 22.9639 V 957.12913 c 0.7358,-0.16343 1.4714,-0.32686 2.207,-0.49013 12.741,42.24203 25.4819,84.4842 38.4454,127.4644 h 10.6747 11.2702 V 889.45163 h -23.1649 c 0,41.15592 0,81.68161 -1.2635,122.49247 m -994.55999,23.4274 c 0.1632,-21.2033 -4.0281,-40.13947 -23.3472,-52.52821 9.4542,-5.60443 15.5828,-13.40985 18.3999,-23.83064 3.8379,-14.19651 3.8307,-28.48828 -0.4911,-42.59129 -5.4224,-17.69461 -17.1259,-27.2567 -33.962,-27.57573 -12.2644,-0.23244 -24.5353,-0.0987 -36.8027,-0.0155 -2.3129,0.016 -4.6228,0.56535 -6.9667,0.87287 v 193.9842 c 17.7046,0 34.8543,0.8796 51.891,-0.2872 12.8791,-0.8822 22.1256,-9.7756 26.7022,-23.1994 2.4475,-7.1786 3.0987,-15.1167 4.5766,-24.8299 m 673.16859,48.7676 c 6.6581,0 13.3175,0.077 19.9742,-0.034 13.9129,-0.2313 24.9191,-6.9441 33.3601,-19.0406 6.5701,-9.4152 10.3335,-20.3134 12.8524,-31.7631 5.0614,-23.0085 5.3539,-46.38828 3.5163,-69.79401 -1.1614,-14.7943 -3.8372,-29.34089 -9.6808,-42.89463 -6.5145,-15.10973 -16.0104,-27.04496 -31.2872,-30.36449 -15.784,-3.42968 -31.815,-0.95426 -47.9392,-1.49642 V 1084.138 h 19.2042 M 939.08031,909.11515 v 174.35435 h 24.2393 v -75.1102 h 13.574 c 7.3077,25.452 14.4333,50.2699 21.602,75.2377 h 25.67409 c -8.4234,-27.7069 -16.5813,-54.5405 -24.0966,-79.2606 6.3342,-8.6866 13.0598,-15.04509 16.467,-23.13638 9.0681,-21.53553 9.1989,-44.03183 0.2316,-65.76845 -7.2143,-17.48704 -19.83639,-26.81333 -37.56069,-26.65664 -10.5279,0.0931 -21.0574,-0.0463 -31.5851,0.0567 -2.6553,0.026 -5.3063,0.58103 -8.5456,0.96192 v 19.32168 m 775.59199,174.98607 c 2.3248,-0.2505 4.6496,-0.5009 8.0115,-0.8632 v -74.9494 h 13.51 c 7.3184,25.4854 14.4518,50.327 21.496,74.858 h 25.6969 c -8.4356,-27.6037 -16.534,-54.1036 -24.7806,-81.0888 11.878,-7.91535 18.88,-19.23569 21.5303,-33.64764 2.5599,-13.91953 2.9404,-27.96732 -0.3755,-41.81002 -6.1097,-25.5051 -20.5709,-37.73188 -44.2327,-37.78435 -8.4239,-0.0186 -16.8479,-0.003 -25.2718,-0.003 -3.6942,-8e-5 -7.3885,-8e-5 -10.8065,-8e-5 v 195.29059 h 15.2224 m -440.4736,-88.35801 c 0,5.08131 0.058,10.16351 -0.013,15.24351 -0.1461,10.5474 0.1361,21.1407 -0.6693,31.6286 -1.0736,13.9818 -8.5145,21.8029 -19.3245,21.6274 -10.5188,-0.1707 -17.1242,-7.5093 -18.5379,-21.1824 -0.6404,-6.1935 -0.8044,-12.4753 -0.8148,-18.7179 -0.069,-40.64916 -0.035,-81.29828 -0.035,-121.94759 v -12.66472 h -23.3017 c -0.3588,1.72173 -0.6487,2.46469 -0.6495,3.20792 -0.047,47.68351 -0.2441,95.36853 0.083,143.04889 0.052,7.6509 1.6496,15.598 3.9356,22.8604 6.0087,19.0868 20.8805,29.4824 40.2354,29.2272 18.783,-0.2477 33.4339,-10.7437 38.9811,-29.5312 2.474,-8.3786 3.6628,-17.581 3.735,-26.4267 0.3635,-44.55408 0.1807,-89.11384 0.1341,-133.6716 0,-2.9982 -0.4647,-5.99574 -0.7019,-8.86009 h -23.0571 v 106.15828 m -586.35419,68.57681 c 2.7376,6.648 5.4753,13.2962 7.847,19.0553 h 27.031 c -1.8667,-4.5085 -3.198,-8.0263 -4.7481,-11.4202 -12.3874,-27.122 -24.6324,-54.3284 -37.3643,-81.24889 -3.1044,-6.56405 -3.3583,-11.62119 -0.048,-18.32429 11.9853,-24.2669 23.3318,-48.92586 34.8661,-73.46792 1.376,-2.92775 2.425,-6.04621 3.7726,-9.4477 h -25.7943 c -4.7125,10.77032 -9.1864,20.92253 -13.6018,31.10623 -4.417,10.18742 -8.6172,20.49575 -13.2051,30.58581 -4.4009,9.67847 -7.81,20.02041 -13.3178,29.00641 -0.7305,-0.24955 -1.4611,-0.49895 -2.1916,-0.74851 v -90.03398 h -22.5685 c -2.0522,13.93316 -1.5886,185.99844 0.3943,193.98484 h 22.4282 c 0,-14.3752 0.6632,-28.0395 -0.1828,-41.5866 -0.8816,-14.1158 4.9198,-24.9205 11.5723,-37.9961 8.653,20.8619 16.5467,39.8931 25.1104,60.5356 m 192.5559,-22.6112 c 3.7115,0.1671 7.423,0.3339 10.9631,0.4933 2.3982,14.696 4.5744,28.0309 6.7348,41.2701 h 23.3171 c -11.7829,-65.2649 -23.4267,-129.75944 -35.047,-194.12401 h -27.6884 c -11.6658,64.81644 -23.2552,129.20881 -34.9107,193.96831 h 23.3318 c 2.2724,-14.0452 4.4277,-27.3663 6.7319,-41.6077 h 26.5674 m -446.7139,-97.14039 c -8.2355,46.11813 -16.471,92.23609 -24.7854,138.79669 h 23.254 c 2.2618,-13.986 4.4166,-27.3103 6.7183,-41.5431 12.9658,-0.076 25.3413,-0.4269 37.5311,0.207 2.4315,14.8793 4.6106,28.2139 6.7706,41.4323 h 23.3141 c -11.7886,-65.2832 -23.4376,-129.79206 -35.0426,-194.05848 h -27.5974 c -3.3155,18.07286 -6.5396,35.64724 -10.1627,55.16559 m 1135.54949,42.88552 c 5.8838,-32.44397 11.7678,-64.8882 17.7606,-97.93379 h -24.5267 c -7.9147,51.34304 -15.7259,102.01483 -23.5371,152.68676 -0.6158,0.015 -1.2315,0.019 -1.8472,0.029 -7.7819,-50.89143 -15.5639,-101.78288 -23.3679,-152.81858 h -24.4711 c 11.7692,65.2446 23.3905,129.66858 35.0408,194.25378 h 27.6918 c 5.6653,-31.6055 11.2807,-62.9329 17.2568,-96.21652 m 286.9869,62.88382 c -3.1717,7.0114 -7.8875,12.0403 -15.0168,13.3547 -12.6197,2.3267 -21.8829,-5.5878 -31.2799,-14.1252 -3.8177,6.8658 -7.2627,13.0613 -11.0684,19.9056 14.274,15.7972 30.6123,21.1955 49.4184,17.3413 16.3309,-3.3471 27.1711,-14.4685 31.86,-31.9277 5.8549,-21.8003 3.386,-42.6789 -9.3953,-60.9848 -4.6931,-6.72175 -10.6124,-12.41212 -16.1639,-18.35116 -5.5598,-5.94777 -11.8806,-11.11719 -16.8828,-17.5742 -3.7763,-4.87448 -6.9257,-10.90611 -8.7062,-17.01799 -2.921,-10.02547 -0.513,-19.46891 6.564,-26.68471 6.8045,-6.93791 14.9786,-5.85981 22.8067,-2.81015 4.184,1.62999 7.8841,4.80034 12.4713,7.69797 3.103,-6.45037 6.159,-12.80324 9.3404,-19.41637 -14.521,-14.43229 -30.5522,-17.40566 -47.7225,-11.75543 -15.5445,5.11522 -24.5463,18.04494 -27.4764,35.32775 -3.2632,19.24764 -0.2672,37.51589 11.7282,52.68128 5.3033,6.70474 11.5361,12.50774 17.4339,18.6159 4.6186,4.78308 9.6859,9.07521 14.0004,14.16691 9.6009,11.3312 13.4282,24.4841 8.0889,41.5563 m -221.3444,33.7638 h 36.4288 v -23.9771 h -43.2083 v -63.99027 h 41.3803 v -23.59007 h -41.3896 v -60.35268 h 43.2987 v -22.76875 h -66.6446 v 194.67887 h 30.1347 M 580.95021,1049.6517 c -2.7969,8.2753 -7.3966,14.7461 -15.9384,14.414 -8.4063,-0.3273 -12.8724,-7.2466 -15.7661,-15.1717 -1.8365,-5.0297 -3.3603,-10.3023 -4.2881,-15.6254 -4.9251,-28.2554 -4.9903,-56.74541 -1.2636,-85.07965 1.3423,-10.2064 4.2747,-20.73299 8.7486,-29.71257 6.6269,-13.30058 19.9508,-12.3353 26.77,0.92626 2.2142,4.30595 3.8137,9.00399 5.9587,14.15807 6.5218,-2.74372 12.5489,-5.27925 19.0999,-8.03521 -2.0975,-5.9041 -3.6036,-10.66528 -5.4496,-15.2571 -13.6962,-34.06641 -51.7337,-30.89305 -65.6384,-5.52803 -4.8555,8.85751 -8.9303,18.7529 -11.1809,28.7813 -7.4191,33.05899 -6.9832,66.57103 -1.4963,99.92803 2.4785,15.0674 7.1,29.4675 16.8018,41.0118 15.1455,18.0218 40.2642,18.3639 54.0892,0.6313 7.0382,-9.0277 10.8893,-19.7625 12.7677,-32.4188 -6.3211,-2.6134 -12.3541,-5.1077 -18.8437,-7.7911 -1.4409,5.0195 -2.6005,9.0587 -4.3708,14.7688 M 2058.5757,961.64902 c 3.3115,9.45045 6.3412,19.03966 10.0198,28.30949 3.1939,8.04915 4.5042,16.20259 4.3794,24.98569 -0.2831,19.9191 -0.1233,39.8465 -0.05,59.7703 0.011,2.9437 0.5354,5.8849 0.7898,8.495 h 22.9049 c 0,-23.5322 0.1365,-46.1403 -0.071,-68.7445 -0.077,-8.3349 1.1368,-16.06233 3.9692,-23.87912 10.8819,-30.02911 21.3174,-60.25917 31.8735,-90.43412 1.1788,-3.36983 2.0644,-6.86702 3.2283,-10.78426 h -24.5858 c -8.474,27.5081 -16.8177,54.59309 -25.1615,81.67821 -0.6602,0.0635 -1.3204,0.12703 -1.9803,0.19147 -8.4008,-27.40873 -16.8015,-54.81755 -25.0673,-81.78565 h -25.747 c 8.4897,24.17891 16.6338,47.37432 25.4974,72.19749 M 749.31561,958.34577 c 4.1288,11.60304 8.6088,23.07206 12.2422,34.86425 1.8894,6.13186 3.0828,12.81598 3.207,19.28368 0.3975,20.6885 0.1171,41.3932 0.1844,62.091 0.01,2.966 0.4934,5.93 0.7388,8.6832 h 22.9592 c 0,-4.712 -10e-5,-8.5573 0,-12.4026 10e-5,-19.5265 -0.2966,-39.0618 0.1612,-58.5753 0.1605,-6.8387 1.3191,-13.98492 3.4902,-20.37176 10.4151,-30.63821 21.3443,-61.05974 32.0569,-91.57292 1.1993,-3.41601 2.1832,-6.92594 3.469,-11.03824 h -24.7082 c -8.4978,27.4706 -16.8953,54.61695 -25.2929,81.76326 -0.7024,-0.12082 -1.4049,-0.24026 -2.1073,-0.36031 -8.3105,-27.17807 -16.621,-54.35625 -24.8575,-81.29285 h -25.81 c 8.1722,23.0996 15.9733,45.15012 24.267,68.92859 m 1252.80849,2.21487 v -48.50155 h 26.8754 c 0.1957,-4.31909 0.4767,-7.74363 0.4716,-11.16774 -0.01,-3.76884 -0.2747,-7.53712 -0.4376,-11.51626 h -77.6064 v 23.23146 h 26.6535 V 1083.249 h 24.0435 V 960.56064 m -72.2505,16.41921 v -87.62566 h -23.4294 V 1083.643 h 23.4293 c 0,-35.1194 0,-69.7186 10e-5,-106.66315 m -481.7583,75.04435 v 31.3989 h 22.5575 c 2.0007,-17.6347 1.3745,-185.92907 -0.5521,-193.72088 h -22.0054 z"
     id="path2-3"
     style="stroke-width:1.11134"
     sodipodi:nodetypes="ccscccssccssccccccccccccccssscccsscccscsssccccccccccccssscccccccccsssscccccssscscccccssscccccccsscsccssccccccscccccccccccccccccccccccccccccccccsccssssssssccssssccccccccccccccccccscssscccsssssccccsssccccsccccccccssccccssscccccccccccccccccccccccccccccc" /><path
     fill="#76d7fb"
     opacity="1"
     stroke="none"
     d="m 1392.5011,1011.8011 c 0.6318,-40.66817 0.6318,-81.19386 0.6318,-122.34978 8.2531,0 15.4095,0 23.1649,0 0,64.64146 0,128.88268 0,194.65178 -3.8165,0 -7.5433,0 -11.2703,0 -3.4617,0 -6.9236,0 -10.6746,0 -12.9636,-42.9802 -25.7044,-85.22238 -38.4454,-127.46441 -0.7356,0.16327 -1.4713,0.3267 -2.207,0.49013 0,41.88837 0,83.77678 0,126.31148 -8.0588,0 -15.2177,0 -22.9639,0 0,-64.5223 0,-128.7821 0,-193.83615 7.5234,0 15.0263,0 23.2812,0 4.0927,13.41125 8.2693,27.03057 12.4053,40.66524 7.6218,25.12632 15.204,50.26764 22.8558,75.38261 0.6622,2.1734 1.7177,4.198 3.2222,6.1491 z"
     id="path8"
     style="stroke-width:1.11134" /><path
     fill="#78d4f7"
     opacity="1"
     stroke="none"
     d="m 397.30141,1036.43 c -1.4699,8.6542 -2.1211,16.5923 -4.5686,23.7709 -4.5766,13.4238 -13.8231,22.3174 -26.7022,23.1994 -17.0367,1.1668 -34.1864,0.2872 -51.891,0.2872 0,-64.7631 0,-128.974 0,-193.98407 2.3439,-0.30752 4.6538,-0.85704 6.9667,-0.87286 12.2674,-0.084 24.5383,-0.21769 36.8027,0.0155 16.8361,0.31903 28.5396,9.88112 33.962,27.57575 4.3218,14.10302 4.329,28.3948 0.4911,42.5913 -2.8171,10.42079 -8.9457,18.22621 -18.3999,23.83065 19.3191,12.38873 23.5104,31.32493 23.3392,53.58703 m -31.6115,-33.5494 c -7.9914,-8.95709 -17.7042,-6.66198 -27.4536,-5.89178 0,21.42328 0,42.13328 0,63.58028 4.865,0 9.0109,0.1518 13.1449,-0.029 11.2753,-0.4956 17.9581,-5.896 20.0148,-18.0323 2.217,-13.0815 2.7995,-26.3537 -5.7061,-39.6268 m -10.7649,-90.17178 c -5.5161,0 -11.0322,0 -16.4335,0 -1.8656,13.61214 -1.4705,51.4587 0.6266,60.1989 4.0674,0 8.2812,0.3741 12.4231,-0.0744 9.9312,-1.07614 15.8094,-6.08043 17.4659,-17.01877 1.2594,-8.31668 1.1363,-17.12999 0.2549,-25.54395 -0.8493,-8.10775 -5.0954,-14.46742 -14.337,-17.56139 z"
     id="path9"
     style="stroke-width:1.11134" /><path
     fill="#79d3f5"
     opacity="1"
     stroke="none"
     d="m 1069.4421,1084.1386 c -6.5644,0 -12.0931,0 -18.1683,0 0,-65.3069 0,-129.50627 0,-195.38685 16.1242,0.54217 32.1552,-1.93327 47.9392,1.49641 15.2768,3.31953 24.7727,15.25476 31.2872,30.36451 5.8436,13.55388 8.5193,28.10048 9.6808,42.89447 1.8376,23.40573 1.5451,46.78546 -3.5163,69.79416 -2.5189,11.4497 -6.2823,22.3479 -12.8524,31.7629 -8.441,12.0966 -19.4472,18.8094 -33.3601,19.0406 -6.6567,0.11 -13.3161,0.029 -21.0101,0.034 m 43.7075,-56.9604 c 3.6845,-20.4392 3.6196,-41.11081 2.2772,-61.72665 -0.6273,-9.63262 -2.1241,-19.44633 -4.7974,-28.60973 -5.5025,-18.86132 -14.2678,-28.10736 -35.1884,-23.30439 0,48.70552 0,97.50897 0,146.17147 19.1623,3.4901 28.187,-2.1847 34.7676,-21.7286 0.979,-2.9079 1.6651,-5.9377 2.941,-10.8021 z"
     id="path10"
     style="stroke-width:1.11134" /><path
     fill="#78d4f7"
     opacity="1"
     stroke="none"
     d="m 939.08031,907.97114 c 0,-6.56139 0,-11.97877 0,-18.17766 3.2393,-0.38089 5.8903,-0.93592 8.5456,-0.96192 10.5277,-0.10301 21.0572,0.0366 31.5851,-0.0567 17.7243,-0.15669 30.34639,9.1696 37.56069,26.65664 8.9673,21.73654 8.8365,44.23284 -0.2316,65.76853 -3.4072,8.09129 -10.1328,14.44978 -16.467,23.13637 7.5153,24.7202 15.6732,51.5536 24.0966,79.2606 -9.1973,0 -17.1588,0 -25.67409,0 -7.1687,-24.9678 -14.2943,-49.7857 -21.602,-75.2376 -4.3014,0 -8.3128,0 -13.574,0 0,24.8626 0,49.6732 0,75.1102 -8.421,0 -15.6396,0 -24.2393,0 0,-58.1689 0,-116.26172 0,-175.49854 m 43.0886,5.16324 c -6.1198,-0.31587 -12.2395,-0.6317 -18.6147,-0.96075 0,24.74648 0,47.92763 0,71.68206 3.2726,0.25188 5.9823,0.6675 8.6873,0.63357 13.9658,-0.17504 20.5509,-5.67352 24.1228,-20.60748 2.5613,-10.70845 2.4064,-21.52828 -0.1766,-32.26679 -1.8919,-7.86512 -5.4576,-14.27075 -14.0188,-18.48061 z"
     id="path11"
     style="stroke-width:1.11134" /><path
     fill="#76d7fb"
     opacity="1"
     stroke="none"
     d="m 1713.6599,1084.102 c -5.1801,7e-4 -9.3478,7e-4 -14.21,7e-4 0,-64.9367 0,-129.23956 0,-195.29061 3.418,0 7.1123,0 10.8065,8e-5 8.4239,2.2e-4 16.8479,-0.0155 25.2718,0.003 23.6618,0.0524 38.123,12.27926 44.2327,37.78452 3.3159,13.84269 2.9354,27.89049 0.3755,41.81002 -2.6503,14.41195 -9.6523,25.73229 -21.5303,33.64759 8.2466,26.9852 16.345,53.4851 24.7806,81.0889 -8.7811,0 -16.864,0 -25.6969,0 -7.0442,-24.5311 -14.1776,-49.3726 -21.496,-74.858 -4.2557,0 -8.3219,0 -13.51,0 0,24.7055 0,49.4881 0,74.9494 -3.3619,0.3623 -5.6867,0.6126 -9.0239,0.8639 m 8.5945,-153.86319 c 0,17.75226 0,35.50467 0,53.74717 3.9989,0.22973 6.7244,0.55906 9.4447,0.51352 14.0152,-0.23438 21.7508,-6.6781 24.1381,-21.89801 1.2956,-8.26076 1.5904,-17.08755 0.5157,-25.36597 -2.8027,-21.59234 -14.2398,-29.09674 -34.0985,-22.98875 0,4.44565 0,9.07097 0,15.99204 z"
     id="path12"
     style="stroke-width:1.11134" /><path
     fill="#7acff0"
     opacity="1"
     stroke="none"
     d="m 1274.1987,994.57057 c 0,-35.50076 0,-69.8289 0,-104.98554 7.9852,0 15.159,0 23.0572,0 0.2371,2.86434 0.6987,5.86189 0.7019,8.8601 0.047,44.55766 0.2294,89.11758 -0.1342,133.67167 -0.072,8.8456 -1.261,18.0481 -3.7349,26.4266 -5.5472,18.7876 -20.1982,29.2835 -38.9811,29.5312 -19.3549,0.2552 -34.2267,-10.1404 -40.2354,-29.2271 -2.286,-7.2626 -3.8832,-15.2095 -3.9357,-22.8604 -0.3271,-47.68037 -0.1295,-95.36539 -0.083,-143.04897 8e-4,-0.74323 0.2907,-1.48618 0.6496,-3.20792 7.2271,0 14.6686,0 23.3017,0 0,4.23992 0,8.45227 0,12.66471 0,40.64923 -0.033,81.2985 0.035,121.94748 0.011,6.2428 0.1743,12.5246 0.8148,18.7181 1.4137,13.6731 8.0191,21.0117 18.5378,21.1822 10.8101,0.1755 18.2509,-7.6456 19.3246,-21.6274 0.8054,-10.4877 0.5231,-21.0812 0.6693,-31.6284 0.07,-5.08 0.013,-10.1624 0.013,-16.41633 z"
     id="path13-6"
     style="stroke-width:1.11134" /><path
     fill="#79d2f4"
     opacity="1"
     stroke="none"
     d="m 687.50951,1063.5144 c -8.2286,-19.8369 -16.1223,-38.8679 -24.7754,-59.7298 -6.6524,13.0756 -12.4538,23.8801 -11.5723,37.9961 0.846,13.5471 0.1828,27.2113 0.1828,41.5866 -8.0014,0 -15.1917,0 -22.4282,0 -1.9829,-7.9864 -2.4464,-180.05175 -0.3943,-193.98492 7.1242,0 14.3484,0 22.5686,0 0,30.1446 0,60.08936 0,90.03405 0.7305,0.24955 1.461,0.49895 2.1916,0.74851 5.5077,-8.986 8.9168,-19.32795 13.3177,-29.00642 4.588,-10.09021 8.7881,-20.39854 13.2052,-30.58587 4.4153,-10.18371 8.8892,-20.33591 13.6018,-31.10623 8.183,0 16.4761,0 25.7943,0 -1.3477,3.40149 -2.3967,6.51994 -3.7727,9.44771 -11.5342,24.54211 -22.8808,49.20092 -34.866,73.46782 -3.3107,6.70325 -3.0569,11.76024 0.048,18.32445 12.7319,26.9205 24.9769,54.1269 37.3643,81.2489 1.55,3.3938 2.8813,6.9115 4.7481,11.4202 -9.2375,0 -17.4477,0 -27.0311,0 -2.3716,-5.7593 -5.1093,-12.4073 -8.182,-19.8611 z"
     id="path14"
     style="stroke-width:1.11134" /><path
     fill="#78d5f8"
     opacity="1"
     stroke="none"
     d="m 879.40401,1041.7089 c -8.9893,0 -16.9823,0 -25.5709,0 -2.3042,14.2413 -4.4596,27.5626 -6.732,41.6078 -7.3727,0 -14.5463,0 -23.3318,0 11.6555,-64.7595 23.245,-129.15204 34.9107,-193.9684 9.193,0 17.8639,0 27.6885,0 11.6203,64.3645 23.264,128.8592 35.0469,194.124 -7.9109,0 -15.158,0 -23.317,0 -2.1605,-13.2393 -4.3366,-26.5742 -6.7349,-41.27 -3.54,-0.1594 -7.2516,-0.3262 -11.9595,-0.4934 m -9.8684,-108.37079 c -4.3201,27.91807 -8.6401,55.8361 -13.1313,84.85969 11.1072,0.3122 21.304,0.4727 32.1851,-0.1115 -5.5111,-32.15833 -9.3042,-62.99467 -17.1111,-93.24394 -0.5549,2.19876 -1.1098,4.39767 -1.9427,8.49606 z"
     id="path15"
     style="stroke-width:1.11134" /><path
     fill="#78d5f8"
     opacity="1"
     stroke="none"
     d="m 433.88511,943.59795 c 3.4236,-18.54631 6.6477,-36.12066 9.9633,-54.19352 9.0339,0 17.6895,0 27.5973,0 11.6051,64.26639 23.254,128.77527 35.0427,194.05847 -7.886,0 -15.1345,0 -23.3141,0 -2.1601,-13.2184 -4.3392,-26.553 -6.7706,-41.4324 -12.1899,-0.6338 -24.5654,-0.2822 -37.5312,-0.2069 -2.3017,14.2327 -4.4564,27.5571 -6.7183,41.5431 -7.4627,0 -14.646,0 -23.254,0 8.3145,-46.5606 16.5499,-92.67858 24.9849,-139.76875 m 26.7013,-8.36734 c -0.7002,-3.60965 -1.4004,-7.21931 -2.1005,-10.82912 -0.7648,0.0217 -1.5295,0.0418 -2.2943,0.0635 -4.8773,30.86054 -9.7547,61.72104 -14.8073,93.69071 11.1728,0.2237 21.383,0.7126 32.1833,-0.1947 -4.4083,-27.89624 -8.5875,-54.34343 -12.9812,-82.73071 z"
     id="path16-5"
     style="stroke-width:1.11134" /><path
     fill="#78d4f8"
     opacity="1"
     stroke="none"
     d="m 1569.0547,988.4336 c -5.7957,32.3055 -11.4111,63.6329 -17.0764,95.2384 -9.3756,0 -18.0507,0 -27.6918,0 -11.6503,-64.5853 -23.2716,-129.00916 -35.0408,-194.25374 8.5695,0 16.1336,0 24.4711,0 7.804,51.03568 15.586,101.92698 23.3679,152.81864 0.6157,-0.016 1.2314,-0.019 1.8472,-0.029 7.8112,-50.67199 15.6224,-101.34394 23.5371,-152.68681 8.0645,0 15.9402,0 24.5267,0 -5.9928,33.04559 -11.8768,65.48981 -17.941,98.91186 z"
     id="path17"
     style="stroke-width:1.11134" /><path
     fill="#78d5f8"
     opacity="1"
     stroke="none"
     d="m 1856.5299,1049.4731 c 5.0314,-16.206 1.2041,-29.359 -8.3968,-40.6901 -4.3145,-5.0916 -9.3818,-9.38381 -14.0004,-14.16689 -5.8978,-6.10816 -12.1306,-11.91115 -17.4339,-18.61589 -11.9954,-15.16555 -14.9914,-33.43365 -11.7282,-52.68127 2.9301,-17.28281 11.9319,-30.21253 27.4764,-35.32775 17.1703,-5.65023 33.2015,-2.67686 47.7225,11.75543 -3.1814,6.61313 -6.2374,12.966 -9.3404,19.41637 -4.5872,-2.89763 -8.2873,-6.06798 -12.4713,-7.69797 -7.8281,-3.04966 -16.0022,-4.12776 -22.8067,2.81015 -7.077,7.2158 -9.485,16.65923 -6.564,26.68469 1.7805,6.11188 4.9299,12.14352 8.7062,17.018 5.0022,6.45685 11.323,11.62627 16.8828,17.5742 5.5515,5.93903 11.4708,11.62941 16.1639,18.351 12.7813,18.30603 15.2502,39.18463 9.3953,60.98493 -4.6889,17.459 -15.5291,28.5806 -31.86,31.9277 -18.8061,3.8541 -35.1444,-1.5443 -49.4184,-17.3413 3.8057,-6.8443 7.2507,-13.0398 11.0684,-19.9056 9.397,8.5374 18.6602,16.452 31.2799,14.1253 7.1293,-1.3144 11.8451,-6.3434 15.3247,-14.221 z"
     id="path18"
     style="stroke-width:1.11134" /><path
     fill="#76d7fb"
     opacity="1"
     stroke="none"
     d="m 1633.8274,1084.1031 c -10.1396,0 -19.2293,0 -29.0845,0 0,-65.0255 0,-129.54435 0,-194.67883 22.089,0 44.0117,0 66.6446,0 0,7.25071 0,14.39972 0,22.76875 -14.374,0 -28.5666,0 -43.2987,0 0,20.53584 0,39.88163 0,60.35267 13.5873,0 27.0999,0 41.3896,0 0,8.1938 0,15.29105 0,23.59007 -13.7875,0 -27.3099,0 -41.3803,0 0,21.68594 0,42.20954 0,63.99014 14.101,0 28.2747,0 43.2083,0 0,8.3498 0,15.4888 0,23.9772 -12.1189,0 -24.2738,0 -37.479,0 z"
     id="path19"
     style="stroke-width:1.11134" /><path
     fill="#78d5f8"
     opacity="1"
     stroke="none"
     d="m 581.25551,1048.8164 c 1.465,-4.8748 2.6246,-8.914 4.0655,-13.9335 6.4896,2.6834 12.5226,5.1777 18.8437,7.7911 -1.8784,12.6563 -5.7295,23.3911 -12.7678,32.4188 -13.8249,17.7326 -38.9436,17.3905 -54.0891,-0.6313 -9.7018,-11.5443 -14.3233,-25.9444 -16.8018,-41.0118 -5.4869,-33.357 -5.9228,-66.86904 1.4963,-99.92803 2.2506,-10.0284 6.3254,-19.92379 11.1809,-28.7813 13.9047,-25.36502 51.9422,-28.53838 65.6384,5.52803 1.846,4.59182 3.3521,9.353 5.4496,15.2571 -6.551,2.75596 -12.5781,5.29149 -19.0999,8.03521 -2.145,-5.15408 -3.7445,-9.85212 -5.9587,-14.15807 -6.8192,-13.26156 -20.1431,-14.22684 -26.77,-0.92626 -4.4739,8.97958 -7.4063,19.50617 -8.7486,29.71257 -3.7267,28.33424 -3.6615,56.82425 1.2636,85.07965 0.9278,5.3231 2.4516,10.5957 4.2881,15.6254 2.8937,7.9251 7.3598,14.8444 15.7661,15.1717 8.5418,0.3321 13.1415,-6.1387 16.2437,-15.2493 z"
     id="path20"
     style="stroke-width:1.11134" /><path
     fill="#79d2f4"
     opacity="1"
     stroke="none"
     d="m 2058.2159,960.83514 c -8.5039,-24.00929 -16.648,-47.2047 -25.1376,-71.38361 8.9299,0 16.8174,0 25.747,0 8.2657,26.9681 16.6665,54.37692 25.0673,81.78565 0.6599,-0.0635 1.32,-0.12702 1.9802,-0.19147 8.3438,-27.08512 16.6875,-54.17011 25.1615,-81.67821 7.9018,0 15.513,0 24.5859,0 -1.164,3.91724 -2.0495,7.41443 -3.2283,10.78426 -10.5561,30.17495 -20.9917,60.40501 -31.8735,90.43412 -2.8324,7.81679 -4.0462,15.54422 -3.9693,23.87912 0.2078,22.6042 0.071,45.2123 0.071,68.7445 -7.784,0 -14.9283,0 -22.9048,0 -0.2544,-2.6101 -0.7789,-5.5513 -0.7899,-8.495 -0.074,-19.9238 -0.2338,-39.8512 0.05,-59.7703 0.1248,-8.7831 -1.1855,-16.93654 -4.3795,-24.98569 -3.6785,-9.26983 -6.7082,-18.85904 -10.3795,-29.12337 z"
     id="path21"
     style="stroke-width:1.11134" /><path
     fill="#79d2f4"
     opacity="1"
     stroke="none"
     d="m 749.06941,957.48185 c -8.0474,-22.91455 -15.8485,-44.96507 -24.0207,-68.06467 9.2118,0 17.1079,0 25.81,0 8.2365,26.9366 16.547,54.11478 24.8575,81.29285 0.7024,0.12083 1.4049,0.24011 2.1073,0.36031 8.3976,-27.14631 16.7951,-54.29266 25.2929,-81.76326 8.0177,0 15.6331,0 24.7082,0 -1.2858,4.1123 -2.2697,7.62223 -3.469,11.03824 -10.7126,30.51318 -21.6418,60.93471 -32.0569,91.57292 -2.1711,6.38684 -3.3297,13.53306 -3.4902,20.37176 -0.4578,19.5135 -0.1611,39.0488 -0.1612,58.5753 -10e-5,3.8453 0,7.6906 0,12.4026 -7.8757,0 -15.0315,0 -22.9592,0 -0.2454,-2.7532 -0.7293,-5.7172 -0.7388,-8.6832 -0.067,-20.6978 0.2131,-41.4025 -0.1844,-62.091 -0.1242,-6.4677 -1.3176,-13.15182 -3.207,-19.28368 -3.6334,-11.79219 -8.1134,-23.26121 -12.4885,-35.72817 z"
     id="path22"
     style="stroke-width:1.11134" /><path
     fill="#7ad0f1"
     opacity="1"
     stroke="none"
     d="m 2002.1242,961.73344 c 0,40.98416 0,80.79546 0,121.51556 -8.0708,0 -15.5224,0 -24.0435,0 0,-56.6868 0,-113.17951 0,-170.64245 -9.3306,0 -17.6374,0 -26.6535,0 0,-8.18487 0,-15.39148 0,-23.23146 25.79,0 51.2424,0 77.6064,0 0.1629,3.97914 0.4319,7.74742 0.4376,11.51626 0.01,3.42411 -0.2759,6.84865 -0.4716,11.16774 -8.8633,0 -17.1536,0 -26.8754,0 0,16.78577 0,32.64366 0,49.67435 z"
     id="path23"
     style="stroke-width:1.11134" /><path
     fill="#7bceef"
     opacity="1"
     stroke="none"
     d="m 1929.8736,978.15266 c 0,35.77174 0,70.37094 0,105.49034 -8.3052,0 -15.5421,0 -23.4293,0 0,-64.7476 0,-129.2105 0,-194.28881 7.6592,0 14.8766,0 23.4294,0 0,29.33449 0,58.48017 -1e-4,88.79847 z"
     id="path24"
     style="stroke-width:1.11134" /><path
     fill="#76d8fc"
     opacity="1"
     stroke="none"
     d="m 1448.1154,1050.8544 c 0,-54.20342 0,-107.23693 0,-161.15218 7.5794,0 14.7409,0 22.0054,0 1.9266,7.79181 2.5528,176.08618 0.5521,193.72088 -7.0604,0 -14.2123,0 -22.5575,0 0,-10.5821 0,-20.9905 0,-32.5687 z"
     id="path25"
     style="stroke-width:1.11134" /><path
     fill="#ce1f02"
     opacity="1"
     stroke="none"
     d="m 366.21771,1003.6048 c 7.9778,12.5489 7.3953,25.8211 5.1783,38.9025 -2.0567,12.1366 -8.7395,17.5368 -20.0148,18.0324 -4.134,0.1818 -8.2799,0.029 -13.1449,0.029 0,-21.447 0,-42.157 0,-63.58014 9.7494,-0.77036 19.4622,-3.06531 27.9814,6.61574 z"
     id="path33"
     style="stroke-width:1.11134" /><path
     fill="#cb260d"
     opacity="1"
     stroke="none"
     d="m 355.78301,912.90905 c 8.3836,2.8944 12.6297,9.25407 13.479,17.36189 0.8814,8.4138 1.0045,17.22727 -0.2549,25.5438 -1.6565,10.93833 -7.5347,15.94262 -17.4659,17.01892 -4.1419,0.44877 -8.3557,0.0744 -12.4231,0.0744 -2.0971,-8.7402 -2.4922,-46.58675 -0.6266,-60.19881 5.4013,0 10.9174,0 17.2915,0.19957 z"
     id="path34"
     style="stroke-width:1.11134" /><path
     fill="#ce1f02"
     opacity="1"
     stroke="none"
     d="m 1112.9225,1028.1235 c -1.0488,3.9191 -1.7349,6.9489 -2.7139,9.8568 -6.5806,19.5439 -15.6053,25.2185 -34.7676,21.7286 0,-48.6627 0,-97.46596 0,-146.17151 20.9206,-4.80297 29.6859,4.44307 35.1884,23.30442 2.6733,9.16325 4.1701,18.97711 4.7974,28.60973 1.3424,20.61584 1.4073,41.28746 -2.5043,62.67196 z"
     id="path35"
     style="stroke-width:1.11134" /><path
     fill="#cb260d"
     opacity="1"
     stroke="none"
     d="m 982.95491,913.53066 c 7.7752,3.81358 11.3409,10.21913 13.2328,18.08426 2.583,10.7385 2.7379,21.55833 0.1766,32.26678 -3.5719,14.93396 -10.157,20.43244 -24.1228,20.60748 -2.705,0.0341 -5.4147,-0.38169 -8.6873,-0.63357 0,-23.75443 0,-46.93557 0,-71.68198 6.3752,0.32905 12.4949,0.64488 19.4007,1.35703 z"
     id="path36"
     style="stroke-width:1.11134" /><path
     fill="#cc240a"
     opacity="1"
     stroke="none"
     d="m 1722.2544,929.09116 c 0,-5.77328 0,-10.3986 0,-14.84425 19.8587,-6.10799 31.2958,1.39641 34.0985,22.98883 1.0747,8.27826 0.7799,17.10505 -0.5157,25.36581 -2.3873,15.21992 -10.1229,21.66364 -24.1381,21.89801 -2.7203,0.0465 -5.4458,-0.28379 -9.4447,-0.51352 0,-18.2425 0,-35.99491 0,-54.89488 z"
     id="path37"
     style="stroke-width:1.11134" /><path
     fill="#cc240a"
     opacity="1"
     stroke="none"
     d="m 869.67461,932.38837 c 0.6939,-3.14865 1.2488,-5.34741 1.8037,-7.54632 7.8069,30.24927 11.6,61.08561 17.1111,93.24395 -10.8811,0.5845 -21.0779,0.424 -32.1851,0.1115 4.4912,-29.0236 8.8112,-56.94179 13.2703,-85.80959 z"
     id="path38"
     style="stroke-width:1.11134" /><path
     fill="#cc240a"
     opacity="1"
     stroke="none"
     d="m 460.69361,936.20065 c 4.2865,27.41725 8.4657,53.86443 12.874,81.76065 -10.8003,0.9073 -21.0105,0.4184 -32.1833,0.1947 5.0526,-31.96965 9.93,-62.83015 14.8073,-93.69069 0.7648,-0.0217 1.5295,-0.0418 2.2943,-0.0635 0.7001,3.60981 1.4003,7.21947 2.2077,11.79916 z"
     id="path39"
     style="stroke-width:1.11134" /></g></svg>
