<?xml version="1.0" encoding="UTF-8" standalone="no"?>
<svg
   version="1.1"
   id="Layer_1"
   x="0px"
   y="0px"
   width="2208.7544"
   viewBox="0 0 2208.7544 290.75305"
   enable-background="new 0 0 2408 1912"
   xml:space="preserve"
   sodipodi:docname="logo_ribbon.svg"
   height="290.75305"
   inkscape:version="1.3 (0e150ed, 2023-07-21)"
   xmlns:inkscape="http://www.inkscape.org/namespaces/inkscape"
   xmlns:sodipodi="http://sodipodi.sourceforge.net/DTD/sodipodi-0.dtd"
   xmlns="http://www.w3.org/2000/svg"
   xmlns:svg="http://www.w3.org/2000/svg"><defs
   id="defs39" /><sodipodi:namedview
   id="namedview39"
   pagecolor="#ffffff"
   bordercolor="#000000"
   borderopacity="0.25"
   inkscape:showpageshadow="2"
   inkscape:pageopacity="0.0"
   inkscape:pagecheckerboard="0"
   inkscape:deskcolor="#d1d1d1"
   showgrid="false"
   inkscape:zoom="0.34931605"
   inkscape:cx="974.76196"
   inkscape:cy="-1.4313685"
   inkscape:window-width="1312"
   inkscape:window-height="1014"
   inkscape:window-x="0"
   inkscape:window-y="25"
   inkscape:window-maximized="0"
   inkscape:current-layer="Layer_1" />&#10;&#10;<path
   fill="#cd1e02"
   opacity="1"
   stroke="none"
   d="m 2197.353,269.9206 c 3.583,6.54671 7.1659,13.09326 11.4015,20.83244 -736.2338,0 -1471.23851,0 -2207.80993,0 4.03992,-7.09043 7.37284,-13.29185 11.0086,-19.26462 24.7503,-40.65937 49.49689,-81.32199 74.43515,-121.83807 3.47614,-5.64747 3.60478,-9.64365 -0.25878,-15.50637 C 58.76202,92.614025 31.7971,50.754943 4.74748,8.965801 3.20311,6.579991 2.04175,3.886737 0,0 c 736.57278,0 1471.6925,0 2207.6767,0 -0.9223,1.96068 -1.573,3.933473 -2.6521,5.552009 -22.9665,34.445144 -45.9554,68.872116 -69.0057,103.247841 -5.4479,8.12475 -11.2267,15.97408 -16.6722,24.10099 -2.7637,4.12451 -4.9494,8.22525 -1.362,13.67645 15.5212,23.58422 30.7832,47.37988 47.0281,71.33355 0.8886,0.235 1.1727,0.1594 1.0042,1.08017 0.6979,1.52724 1.5641,2.1337 2.4354,2.66132 0.01,-0.0775 -0.1368,-0.0666 -0.4983,0.73039 1.3277,2.65898 3.0175,4.52051 4.7187,6.30272 0.012,-0.079 -0.1309,-0.0991 -0.3371,0.65603 0.7156,1.84356 1.637,2.93256 2.4981,3.99709 -0.061,-0.0232 -0.065,-0.16839 -0.019,0.54403 0.7289,1.10651 1.4117,1.50059 2.1007,1.81536 0.01,-0.079 -0.1369,-0.0883 -0.1138,0.92294 0.3177,1.59865 0.6124,2.18714 1.0706,2.72467 0.1635,-0.0511 0.2553,0.57951 0.5646,1.29255 1.149,1.94703 1.9884,3.18118 2.733,4.38528 -0.095,-0.0294 -0.075,-0.24801 -0.075,-0.24801 4.4146,7.09353 8.8292,14.18721 13.9963,21.31358 0.7523,0.0325 0.6546,0.0527 0.6551,1.05353 0.3016,1.57618 0.6029,2.15244 1.0045,2.6421 0.1003,-0.0867 0.6019,0.13632 0.6019,0.13632 m -902.7102,-96.64622 c -0.8728,-2.09374 -1.9283,-4.11838 -2.5905,-6.29173 -7.6518,-25.11501 -15.234,-50.25633 -22.8558,-75.38265 -4.1359,-13.634672 -8.3125,-27.253992 -12.4053,-40.665241 -8.2549,0 -15.7578,0 -23.2812,0 0,65.054051 0,129.313871 0,193.836131 7.7463,0 14.9051,0 22.9639,0 0,-42.53468 0,-84.42309 0,-126.31146 0.7358,-0.16343 1.4714,-0.32686 2.207,-0.49013 12.741,42.24203 25.4819,84.48424 38.4454,127.46444 3.751,0 7.2129,0 10.6747,0 3.7269,0 7.4537,0 11.2702,0 0,-65.76912 0,-130.01035 0,-194.651813 -7.7554,0 -14.9118,0 -23.1649,0 0,41.155926 0,81.681613 -1.2635,122.492453 m -994.56004,23.42745 c 0.1632,-21.20329 -4.02803,-40.1395 -23.34711,-52.52824 9.45419,-5.60443 15.58274,-13.40985 18.39988,-23.83064 3.83787,-14.19651 3.83067,-28.488282 -0.49111,-42.591286 -5.42243,-17.694614 -17.12591,-27.256703 -33.96198,-27.575735 -12.26442,-0.232439 -24.53533,-0.09868 -36.80274,-0.01549 -2.31286,0.01596 -4.62279,0.565351 -6.96669,0.872873 0,65.010178 0,129.221048 0,193.984188 17.70456,0 34.85434,0.87957 51.89103,-0.2872 12.87906,-0.88219 22.12557,-9.77559 26.70221,-23.19942 2.44742,-7.17857 3.09868,-15.11666 4.57651,-24.82983 m 673.16865,48.76754 c 6.6581,0 13.3175,0.0775 19.9742,-0.0341 13.91289,-0.23127 24.91909,-6.94404 33.36009,-19.04062 6.5701,-9.41513 10.3335,-20.31334 12.8524,-31.76302 5.0614,-23.00858 5.3539,-46.38832 3.5163,-69.79405 -1.1614,-14.7943 -3.8372,-29.340893 -9.6808,-42.894626 -6.5145,-15.109733 -16.0104,-27.04496 -31.2872,-30.36449 -15.78399,-3.429685 -31.81499,-0.954262 -47.93919,-1.496423 0,65.880569 0,130.080129 0,195.386999 6.0752,0 11.6039,0 19.2042,0 M 841.85366,70.445773 c 0,58.092717 0,116.185507 0,174.354397 8.59978,0 15.8183,0 24.23933,0 0,-25.43691 0,-50.24753 0,-75.1102 5.26123,0 9.27257,0 13.574,0 7.30769,25.45194 14.43333,50.26984 21.60202,75.23769 8.5153,0 16.4768,0 25.6741,0 -8.4234,-27.70693 -16.5813,-54.54049 -24.0966,-79.26064 6.3342,-8.6866 13.0598,-15.04509 16.467,-23.13638 9.0681,-21.53553 9.1989,-44.03183 0.2316,-65.768448 -7.2143,-17.487038 -19.8364,-26.813327 -37.56073,-26.656638 -10.52784,0.0931 -21.05742,-0.04632 -31.58513,0.0567 -2.65523,0.02602 -5.30622,0.581027 -8.54559,0.961914 0,6.19889 0,11.616272 0,19.321686 M 1617.4457,245.43188 c 2.3248,-0.25048 4.6496,-0.50082 8.0115,-0.86314 0,-25.46124 0,-50.24382 0,-74.94941 5.1881,0 9.2543,0 13.51,0 7.3184,25.4854 14.4518,50.327 21.496,74.85801 8.8329,0 16.9158,0 25.6969,0 -8.4356,-27.60376 -16.534,-54.10364 -24.7806,-81.08886 11.878,-7.91531 18.88,-19.23565 21.5303,-33.6476 2.5599,-13.91953 2.9404,-27.96732 -0.3755,-41.810021 -6.1097,-25.505101 -20.5709,-37.73188 -44.2327,-37.784347 -8.4239,-0.01859 -16.8479,-0.0031 -25.2718,-0.0031 -3.6942,-7.8e-5 -7.3885,-7.8e-5 -10.8065,-7.8e-5 0,66.051036 0,130.353916 0,195.290556 4.8622,0 9.0299,0 15.2224,0 M 1176.9721,157.076 c 0,5.08128 0.058,10.16349 -0.013,15.24353 -0.1461,10.54734 0.1361,21.1407 -0.6693,31.62856 -1.0736,13.98181 -8.5145,21.80294 -19.3245,21.62743 -10.5188,-0.17071 -17.1242,-7.5093 -18.5379,-21.18238 -0.6404,-6.19351 -0.8044,-12.47532 -0.8148,-18.71795 -0.069,-40.64914 -0.035,-81.29826 -0.035,-121.947573 0,-4.212449 0,-8.424804 0,-12.664718 -8.633,0 -16.0746,0 -23.3017,0 -0.3588,1.721736 -0.6487,2.464688 -0.6495,3.207919 -0.047,47.683512 -0.2441,95.368532 0.083,143.048932 0.052,7.65089 1.6496,15.59796 3.9356,22.86034 6.0087,19.08678 20.8805,29.48247 40.2354,29.22718 18.783,-0.24769 33.4339,-10.74361 38.9811,-29.53111 2.474,-8.37865 3.6628,-17.58109 3.735,-26.42677 0.3635,-44.55406 0.1807,-89.11382 0.1341,-133.671576 0,-2.998205 -0.4647,-5.995745 -0.7019,-8.860095 -7.8982,0 -15.072,0 -23.0571,0 0,35.156727 0,69.484871 0,106.158281 m -586.35424,68.57682 c 2.73769,6.64801 5.47539,13.29618 7.84703,19.05533 9.58335,0 17.79361,0 27.03102,0 -1.86673,-4.50858 -3.19805,-8.02638 -4.74809,-11.42025 -12.38738,-27.12199 -24.63239,-54.32841 -37.3643,-81.24888 -3.10447,-6.56405 -3.3583,-11.62119 -0.0477,-18.32429 11.98526,-24.2669 23.3318,-48.925862 34.8661,-73.467918 1.37598,-2.927753 2.42493,-6.046213 3.77263,-9.447705 -9.31821,0 -17.61126,0 -25.79433,0 -4.71255,10.770322 -9.18644,20.922531 -13.60177,31.106234 -4.41708,10.18742 -8.61721,20.495749 -13.20519,30.585809 -4.40087,9.67847 -7.81001,20.02041 -13.31773,29.00641 -0.73058,-0.24955 -1.46109,-0.49895 -2.1916,-0.74851 0,-29.94454 0,-59.889382 0,-90.033981 -8.22016,0 -15.44441,0 -22.56858,0 -2.05211,13.933164 -1.58855,185.998461 0.39434,193.984871 7.23646,0 14.42677,0 22.4282,0 0,-14.37527 0.66321,-28.03951 -0.18281,-41.58664 -0.88156,-14.1158 4.91985,-24.92045 11.57229,-37.99605 8.65307,20.86187 16.54676,39.89304 25.11042,60.53557 m 192.55588,-22.61125 c 3.71149,0.16715 7.42306,0.33398 10.96312,0.49338 2.39825,14.69593 4.57436,28.03084 6.73485,41.27002 8.15903,0 15.40609,0 23.31702,0 -11.78286,-65.26489 -23.42662,-129.7594 -35.04692,-194.123965 -9.82458,0 -18.49552,0 -27.68845,0 -11.66575,64.816435 -23.25519,129.208855 -34.91071,193.968285 8.78548,0 15.95907,0 23.3318,0 2.2724,-14.04516 4.42775,-27.36629 6.73196,-41.60772 8.58866,0 16.5816,0 26.56733,0 M 336.45895,105.90122 c -8.23546,46.11813 -16.47092,92.23614 -24.7854,138.79671 8.60804,0 15.79134,0 23.25406,0 2.26182,-13.98599 4.41659,-27.31036 6.71829,-41.54312 12.96578,-0.0759 25.34131,-0.42692 37.53113,0.20696 2.43148,14.87934 4.61055,28.21394 6.77059,41.43236 8.1796,0 15.42814,0 23.31412,0 -11.78864,-65.28317 -23.43761,-129.79208 -35.04266,-194.058504 -9.90777,0 -18.56337,0 -27.59735,0 -3.31554,18.072867 -6.53963,35.647241 -10.16278,55.165594 m 1135.54955,42.88552 c 5.8838,-32.44397 11.7678,-64.888203 17.7606,-97.933787 -8.5865,0 -16.4622,0 -24.5267,0 -7.9147,51.343037 -15.7259,102.014827 -23.5371,152.686807 -0.6158,0.0155 -1.2315,0.0186 -1.8472,0.0294 -7.7819,-50.89148 -15.5639,-101.78293 -23.3679,-152.818631 -8.3375,0 -15.9016,0 -24.4711,0 11.7692,65.244601 23.3905,129.668621 35.0408,194.253781 9.6411,0 18.3162,0 27.6918,0 5.6653,-31.60549 11.2807,-62.93292 17.2568,-96.21652 m 286.9869,62.88381 c -3.1717,7.01143 -7.8875,12.04035 -15.0168,13.35474 -12.6197,2.32671 -21.8829,-5.58783 -31.2799,-14.12525 -3.8177,6.86581 -7.2627,13.06134 -11.0684,19.90563 14.274,15.79716 30.6123,21.19554 49.4184,17.34128 16.3309,-3.34709 27.1711,-14.46852 31.86,-31.92769 5.8549,-21.8003 3.386,-42.6789 -9.3953,-60.9848 -4.6931,-6.72175 -10.6124,-12.41212 -16.1639,-18.35116 -5.5598,-5.94777 -11.8806,-11.11719 -16.8828,-17.5742 -3.7763,-4.87448 -6.9257,-10.90611 -8.7062,-17.01799 -2.921,-10.025468 -0.513,-19.468913 6.564,-26.68471 6.8045,-6.937908 14.9786,-5.859813 22.8067,-2.810148 4.184,1.629984 7.8841,4.800339 12.4713,7.697963 3.103,-6.450368 6.159,-12.803237 9.3404,-19.416366 -14.521,-14.432291 -30.5522,-17.405664 -47.7225,-11.755426 -15.5445,5.11522 -24.5463,18.044938 -27.4764,35.327745 -3.2632,19.247642 -0.2672,37.515892 11.7282,52.681282 5.3033,6.70474 11.5361,12.50774 17.4339,18.6159 4.6186,4.78308 9.6859,9.07526 14.0004,14.16692 9.6009,11.33118 13.4282,24.48407 8.0889,41.55628 m -221.3444,33.76381 c 12.155,0 24.3099,0 36.4288,0 0,-8.48847 0,-15.62738 0,-23.97706 -14.9336,0 -29.1073,0 -43.2083,0 0,-21.78078 0,-42.30418 0,-63.99031 14.0704,0 27.5928,0 41.3803,0 0,-8.29902 0,-15.39627 0,-23.59007 -14.2897,0 -27.8023,0 -41.3896,0 0,-20.47088 0,-39.816673 0,-60.35268 14.7321,0 28.9247,0 43.2987,0 0,-8.369037 0,-15.518038 0,-22.768751 -22.6329,0 -44.5556,0 -66.6446,0 0,65.134641 0,129.653311 0,194.678871 9.8552,0 18.9449,0 30.1347,0 M 483.72356,210.98229 c -2.79683,8.27532 -7.39657,14.74612 -15.93837,14.414 -8.40625,-0.32732 -12.87236,-7.24658 -15.76606,-15.17165 -1.83653,-5.0297 -3.36035,-10.30229 -4.28813,-15.62538 -4.92512,-28.25545 -4.99029,-56.74546 -1.26362,-85.0797 1.34236,-10.206401 4.27469,-20.732992 8.74865,-29.712566 6.62685,-13.300583 19.95081,-12.335307 26.76999,0.926254 2.21416,4.305951 3.81364,9.003988 5.95863,14.158074 6.52189,-2.743724 12.54891,-5.279251 19.09999,-8.035212 -2.0975,-5.904101 -3.60364,-10.665279 -5.44969,-15.257096 -13.69613,-34.06641 -51.73368,-30.893051 -65.63832,-5.528033 -4.8555,8.857508 -8.9303,18.752896 -11.1809,28.781304 -7.41914,33.058985 -6.98328,66.571045 -1.49631,99.928065 2.47847,15.0674 7.09994,29.46745 16.80175,41.01179 15.14552,18.02179 40.26424,18.36383 54.08918,0.63125 7.03829,-9.02771 10.88934,-19.7625 12.76771,-32.41876 -6.32109,-2.61344 -12.35402,-5.10776 -18.84365,-7.79107 -1.4409,5.01947 -2.60052,9.05868 -4.37085,14.76873 M 1961.3491,122.97963 c 3.3115,9.45045 6.3412,19.03966 10.0198,28.30949 3.1939,8.04915 4.5042,16.20256 4.3794,24.98566 -0.2831,19.9191 -0.1233,39.84657 -0.05,59.77032 0.011,2.94371 0.5354,5.88494 0.7898,8.49498 7.9766,0 15.1209,0 22.9049,0 0,-23.53217 0.1365,-46.14031 -0.071,-68.74443 -0.077,-8.33496 1.1368,-16.06237 3.9692,-23.87916 10.8819,-30.02911 21.3174,-60.259174 31.8735,-90.434119 1.1788,-3.369829 2.0644,-6.867023 3.2283,-10.784264 -9.0729,0 -16.6841,0 -24.5858,0 -8.474,27.508103 -16.8177,54.593093 -25.1615,81.678213 -0.6602,0.0635 -1.3204,0.12703 -1.9803,0.19147 -8.4008,-27.40873 -16.8015,-54.817551 -25.0673,-81.785646 -8.9295,0 -16.8171,0 -25.747,0 8.4897,24.178906 16.6338,47.37432 25.4974,72.197486 M 652.08898,119.67638 c 4.12885,11.60304 8.60878,23.07206 12.24225,34.86425 1.88936,6.13186 3.08273,12.81597 3.20698,19.28367 0.39749,20.68853 0.11705,41.39317 0.18435,62.09099 0.01,2.96601 0.49339,5.93002 0.73887,8.68319 7.92763,0 15.08342,0 22.95912,0 0,-4.71198 -6e-5,-8.55725 0,-12.40252 1.9e-4,-19.52657 -0.29658,-39.06181 0.16127,-58.57537 0.16044,-6.8387 1.3191,-13.9849 3.49013,-20.37174 10.4151,-30.63821 21.34436,-61.059736 32.05693,-91.572922 1.19935,-3.416007 2.18324,-6.925934 3.46898,-11.038235 -9.07511,0 -16.69042,0 -24.70817,0 -8.49778,27.4706 -16.89528,54.616947 -25.29285,81.763257 -0.70242,-0.12082 -1.4049,-0.24026 -2.10739,-0.36031 -8.31048,-27.17807 -16.62094,-54.356252 -24.85749,-81.292854 -8.70211,0 -16.59812,0 -25.80996,0 8.17222,23.099603 15.97328,45.150125 24.26698,68.928594 m 1252.80852,2.21487 c 0,-15.85789 0,-31.71578 0,-48.501551 9.7218,0 18.0121,0 26.8754,0 0.1957,-4.319087 0.4767,-7.743629 0.4716,-11.167738 -0.01,-3.768839 -0.2747,-7.537121 -0.4376,-11.516264 -26.364,0 -51.8164,0 -77.6064,0 0,7.839982 0,15.046593 0,23.231461 9.0161,0 17.3229,0 26.6535,0 0,57.462942 0,113.955692 0,170.642422 8.5211,0 15.9727,0 24.0435,0 0,-40.72009 0,-80.53135 0,-122.68833 m -72.2505,16.41921 c 0,-29.14549 0,-58.291165 0,-87.62566 -8.5528,0 -15.7702,0 -23.4294,0 0,65.07831 0,129.54121 0,194.28886 7.8872,0 15.1241,0 23.4293,0 0,-35.11941 0,-69.71864 10e-5,-106.6632 m -481.7583,75.0444 c 0,10.40839 0,20.81679 0,31.39884 8.3452,0 15.4971,0 22.5575,0 2.0007,-17.63468 1.3745,-185.929063 -0.5521,-193.720869 -7.2645,0 -14.426,0 -22.0054,0 0,53.915249 0,106.948759 0,162.322029 z"
   id="path2"
   style="stroke-width:1.11134" />&#10;<path
   fill="#3c7082"
   opacity="1"
   stroke="none"
   d="m 2166.1855,218.07024 c 0,0 -0.2841,0.0759 -0.3581,0.0806 1.4885,-0.0449 3.8756,-0.84983 4.4841,-0.0248 5.4384,7.36291 10.5634,15.01287 16.167,23.13917 -2.6366,1.0828 -3.861,1.58563 -5.2344,2.80011 -0.1489,0.71149 -0.1689,0.92975 0.4417,0.0201 -0.7787,-1.99257 -2.1685,-3.076 -3.5581,-4.15942 0,0 -0.092,-0.63047 0.2815,-1.03137 -0.2944,-1.3618 -0.9624,-2.32253 -1.6305,-3.28327 0,0 0.1429,0.0155 0.1742,-0.6675 -0.707,-1.04144 -1.4454,-1.40718 -2.1841,-1.77291 0,0 0.01,0.14406 0.2975,-0.59562 -0.6464,-1.82218 -1.5854,-2.90483 -2.5244,-3.98748 0,0 0.1428,0.0201 0.1579,-0.69244 -1.4514,-2.57797 -2.9179,-4.44352 -4.3842,-6.30938 0,0 0.1415,-0.0155 0.024,-0.69957 -0.7966,-1.39711 -1.4754,-2.10627 -2.1543,-2.81529 z"
   id="path3"
   style="stroke-width:1.11134" />&#10;&#10;<path
   fill="#3c7082"
   opacity="1"
   stroke="none"
   d="m 2169.1682,178.79234 c 3.1526,4.72375 5.7413,8.97442 8.3301,13.22508 -0.6027,0.44675 -1.2053,0.8932 -1.8078,1.33995 -3.5358,-4.52733 -8.3473,-8.01275 -8.806,-15.03254 -0.01,-0.10999 0.488,-0.37674 0.7418,-0.36651 0.3294,0.0155 0.6523,0.23112 1.5419,0.83402 z"
   id="path5"
   style="stroke-width:1.11134" />&#10;<path
   fill="#3c7082"
   opacity="1"
   stroke="none"
   d="m 2198.1089,269.90325 c -0.7559,0.017 -1.2576,-0.2054 -0.814,-0.59515 -0.2204,-1.31517 -0.8845,-2.24059 -1.5488,-3.166 0,0 0.098,-0.0201 0.074,0.0263 0.2972,-1.97569 0.6184,-3.99816 1.2149,-7.75483 2.6224,4.09762 4.5981,7.18415 7.6913,12.01742 -3.4252,-0.31864 -4.6433,-0.43219 -6.6174,-0.52823 z"
   id="path6"
   style="stroke-width:1.11134" />&#10;<path
   fill="#3c7082"
   opacity="1"
   stroke="none"
   d="m 2185.0672,230.07636 c -0.032,-0.0294 0.032,0.0294 0,0 z"
   id="path7"
   style="stroke-width:1.11134" />&#10;<path
   fill="#76d7fb"
   opacity="1"
   stroke="none"
   d="m 1295.2745,173.13171 c 0.6318,-40.66817 0.6318,-81.193856 0.6318,-122.349783 8.2531,0 15.4095,0 23.1649,0 0,64.641463 0,128.882693 0,194.651813 -3.8165,0 -7.5433,0 -11.2703,0 -3.4617,0 -6.9236,0 -10.6746,0 -12.9636,-42.98019 -25.7044,-85.22241 -38.4454,-127.46444 -0.7356,0.16327 -1.4713,0.3267 -2.207,0.49013 0,41.88837 0,83.77678 0,126.31146 -8.0588,0 -15.2177,0 -22.9639,0 0,-64.52226 0,-128.78208 0,-193.836131 7.5234,0 15.0263,0 23.2812,0 4.0927,13.411249 8.2693,27.030569 12.4053,40.665241 7.6218,25.12632 15.204,50.26764 22.8558,75.38265 0.6622,2.17335 1.7177,4.198 3.2222,6.14906 z"
   id="path8"
   style="stroke-width:1.11134" />&#10;<path
   fill="#78d4f7"
   opacity="1"
   stroke="none"
   d="m 300.07475,197.76062 c -1.46983,8.65422 -2.12109,16.59231 -4.56851,23.77088 -4.57664,13.42383 -13.82315,22.31738 -26.70221,23.19942 -17.03669,1.16677 -34.18647,0.2872 -51.89103,0.2872 0,-64.76314 0,-128.97401 0,-193.98408 2.3439,-0.307523 4.65383,-0.857042 6.96669,-0.872858 12.26741,-0.08396 24.53832,-0.217692 36.80274,0.01549 16.83607,0.319032 28.53955,9.881121 33.96198,27.57575 4.32178,14.10302 4.32898,28.394798 0.49111,42.591298 -2.81714,10.42079 -8.94569,18.22621 -18.39988,23.83065 19.31908,12.38873 23.51031,31.32494 23.33911,53.58702 m -31.61149,-33.54942 c -7.99134,-8.95706 -17.70411,-6.66195 -27.45359,-5.89175 0,21.42325 0,42.13331 0,63.58027 4.86502,0 9.0109,0.15181 13.14496,-0.0294 11.27525,-0.49555 17.95803,-5.89594 20.01481,-18.03233 2.21692,-13.08148 2.7995,-26.35366 -5.70618,-39.62676 M 257.69843,74.040217 c -5.51612,0 -11.03226,0 -16.43354,0 -1.86559,13.612148 -1.47051,51.458703 0.62657,60.198903 4.06743,0 8.28122,0.3741 12.42312,-0.0744 9.93119,-1.07614 15.80944,-6.08043 17.4659,-17.01877 1.25944,-8.31668 1.13629,-17.12999 0.25495,-25.54395 -0.84929,-8.107755 -5.09548,-14.467424 -14.337,-17.561393 z"
   id="path9"
   style="stroke-width:1.11134" />&#10;<path
   fill="#79d3f5"
   opacity="1"
   stroke="none"
   d="m 972.21551,245.46921 c -6.5644,0 -12.0931,0 -18.1683,0 0,-65.30687 0,-129.50627 0,-195.386845 16.1242,0.542161 32.1552,-1.933278 47.93919,1.496407 15.2768,3.31953 24.7727,15.254757 31.2872,30.364506 5.8436,13.553887 8.5193,28.100482 9.6808,42.894472 1.8376,23.40573 1.5451,46.78547 -3.5163,69.7942 -2.5189,11.44969 -6.2823,22.3479 -12.8524,31.76287 -8.441,12.09658 -19.4472,18.80935 -33.36009,19.04062 -6.6567,0.10999 -13.3161,0.0294 -21.0101,0.0341 m 43.70749,-56.96047 c 3.6845,-20.43912 3.6196,-41.11077 2.2772,-61.72661 -0.6273,-9.63262 -2.1241,-19.44633 -4.7974,-28.609731 -5.5025,-18.861316 -14.26779,-28.107362 -35.18839,-23.304391 0,48.705522 0,97.508972 0,146.171482 19.1623,3.49007 28.18699,-2.18466 34.76759,-21.72858 0.979,-2.90792 1.6651,-5.93776 2.941,-10.80217 z"
   id="path10"
   style="stroke-width:1.11134" />&#10;<path
   fill="#78d4f7"
   opacity="1"
   stroke="none"
   d="m 841.85366,69.30175 c 0,-6.56139 0,-11.978772 0,-18.177663 3.23937,-0.380886 5.89036,-0.93592 8.54559,-0.961914 10.52771,-0.103013 21.05729,0.03656 31.58513,-0.0567 17.72433,-0.156689 30.34643,9.1696 37.56073,26.656638 8.9673,21.73654 8.8365,44.232839 -0.2316,65.768529 -3.4072,8.09129 -10.1328,14.44978 -16.467,23.13638 7.5153,24.72015 15.6732,51.55356 24.0966,79.26064 -9.1973,0 -17.1588,0 -25.6741,0 -7.16869,-24.96785 -14.29433,-49.78576 -21.60202,-75.23769 -4.30143,0 -8.31277,0 -13.574,0 0,24.86266 0,49.67329 0,75.1102 -8.42103,0 -15.63955,0 -24.23933,0 0,-58.16889 0,-116.26168 0,-175.498502 m 43.08863,5.16324 c -6.11977,-0.315872 -12.23954,-0.631697 -18.61469,-0.960752 0,24.746488 0,47.927634 0,71.682064 3.27261,0.25188 5.98228,0.6675 8.68733,0.63357 13.96578,-0.17504 20.55091,-5.67352 24.12278,-20.60748 2.5613,-10.70845 2.4064,-21.52828 -0.1766,-32.266787 -1.89188,-7.865123 -5.4576,-14.270753 -14.01882,-18.480615 z"
   id="path11"
   style="stroke-width:1.11134" />&#10;<path
   fill="#76d7fb"
   opacity="1"
   stroke="none"
   d="m 1616.4333,245.43266 c -5.1801,6.2e-4 -9.3478,6.2e-4 -14.21,6.2e-4 0,-64.93665 0,-129.23953 0,-195.290579 3.418,0 7.1123,0 10.8065,7.8e-5 8.4239,2.17e-4 16.8479,-0.01549 25.2718,0.0031 23.6618,0.05236 38.123,12.279261 44.2327,37.784517 3.3159,13.842694 2.9354,27.890494 0.3755,41.810024 -2.6503,14.41195 -9.6523,25.73229 -21.5303,33.6476 8.2466,26.98521 16.345,53.4851 24.7806,81.08886 -8.7811,0 -16.864,0 -25.6969,0 -7.0442,-24.53102 -14.1776,-49.37261 -21.496,-74.85801 -4.2557,0 -8.3219,0 -13.51,0 0,24.70559 0,49.48817 0,74.9494 -3.3619,0.36233 -5.6867,0.61266 -9.0239,0.86392 m 8.5945,-153.863169 c 0,17.752259 0,35.504669 0,53.747169 3.9989,0.22973 6.7244,0.55906 9.4447,0.51352 14.0152,-0.23438 21.7508,-6.6781 24.1381,-21.89801 1.2956,-8.26076 1.5904,-17.08755 0.5157,-25.365968 -2.8027,-21.592337 -14.2398,-29.096742 -34.0985,-22.988751 0,4.445646 0,9.07097 0,15.99204 z"
   id="path12"
   style="stroke-width:1.11134" />&#10;<path
   fill="#7acff0"
   opacity="1"
   stroke="none"
   d="m 1176.9721,155.90118 c 0,-35.50076 0,-69.828902 0,-104.985536 7.9852,0 15.159,0 23.0572,0 0.2371,2.864334 0.6987,5.861889 0.7019,8.860094 0.047,44.557662 0.2294,89.117582 -0.1342,133.671632 -0.072,8.84569 -1.261,18.04813 -3.7349,26.42662 -5.5472,18.78765 -20.1982,29.28357 -38.9811,29.53127 -19.3549,0.25513 -34.2267,-10.1404 -40.2354,-29.22719 -2.286,-7.26253 -3.8832,-15.20945 -3.9357,-22.86033 -0.3271,-47.6804 -0.1295,-95.36542 -0.083,-143.048998 8e-4,-0.743231 0.2907,-1.486183 0.6496,-3.207919 7.2271,0 14.6686,0 23.3017,0 0,4.239914 0,8.452269 0,12.664703 0,40.649234 -0.033,81.298504 0.035,121.947494 0.011,6.24278 0.1743,12.52459 0.8148,18.71811 1.4137,13.67307 8.0191,21.01166 18.5378,21.18222 10.8101,0.17551 18.2509,-7.64562 19.3246,-21.62743 0.8054,-10.4877 0.5231,-21.08122 0.6693,-31.62841 0.07,-5.08004 0.013,-10.1624 0.013,-16.41633 z"
   id="path13"
   style="stroke-width:1.11134" />&#10;<path
   fill="#79d2f4"
   opacity="1"
   stroke="none"
   d="m 590.28291,224.84497 c -8.22865,-19.83684 -16.12234,-38.86786 -24.77541,-59.72973 -6.65244,13.07559 -12.45385,23.88009 -11.57229,37.99604 0.84602,13.54714 0.18281,27.21138 0.18281,41.58665 -8.00143,0 -15.19174,0 -22.4282,0 -1.98289,-7.98642 -2.44645,-180.051773 -0.39435,-193.984936 7.12418,0 14.34843,0 22.56859,0 0,30.144598 0,60.089356 0,90.034046 0.73051,0.24955 1.46102,0.49895 2.1916,0.74851 5.50772,-8.986 8.91686,-19.32795 13.31773,-29.00642 4.58798,-10.09021 8.78811,-20.398538 13.20518,-30.585865 4.41534,-10.183718 8.88922,-20.335912 13.60178,-31.106234 8.18306,0 16.47612,0 25.79433,0 -1.3477,3.401492 -2.39665,6.519937 -3.77263,9.447705 -11.5343,24.542118 -22.88084,49.200924 -34.8661,73.467824 -3.31067,6.70325 -3.05684,11.76024 0.0477,18.32445 12.73192,26.92046 24.97693,54.12688 37.3643,81.24888 1.55005,3.39387 2.88137,6.91151 4.7481,11.42025 -9.23741,0 -17.44767,0 -27.03103,0 -2.37163,-5.75931 -5.10933,-12.40732 -8.18204,-19.86117 z"
   id="path14"
   style="stroke-width:1.11134" />&#10;<path
   fill="#78d5f8"
   opacity="1"
   stroke="none"
   d="m 782.17743,203.03956 c -8.98936,0 -16.98231,0 -25.57097,0 -2.3042,14.24127 -4.45956,27.56255 -6.73195,41.60771 -7.37273,0 -14.54632,0 -23.3318,0 11.65552,-64.75942 23.24496,-129.152 34.9107,-193.968356 9.19294,0 17.86387,0 27.68846,0 11.6203,64.364496 23.26406,128.859156 35.04692,194.124046 -7.91093,0 -15.15799,0 -23.31703,0 -2.16048,-13.23934 -4.33659,-26.57425 -6.73484,-41.27002 -3.54007,-0.1594 -7.25163,-0.32623 -11.95949,-0.49338 M 772.30901,94.66872 c -4.32008,27.91807 -8.64015,55.8361 -13.13127,84.85974 11.10712,0.31214 21.30393,0.47262 32.18504,-0.11153 -5.51113,-32.15835 -9.30414,-62.99469 -17.11112,-93.243962 -0.55491,2.198758 -1.10974,4.397671 -1.94265,8.496061 z"
   id="path15"
   style="stroke-width:1.11134" />&#10;<path
   fill="#78d5f8"
   opacity="1"
   stroke="none"
   d="m 336.6585,104.92856 c 3.42363,-18.546312 6.64772,-36.120656 9.96326,-54.193523 9.03398,0 17.68958,0 27.59735,0 11.60505,64.266393 23.25402,128.775303 35.04266,194.058473 -7.88598,0 -15.13452,0 -23.31412,0 -2.16004,-13.21842 -4.33911,-26.55302 -6.77059,-41.43236 -12.18982,-0.63388 -24.56535,-0.28224 -37.53113,-0.20696 -2.3017,14.23276 -4.45647,27.55713 -6.71829,41.54312 -7.46272,0 -14.64602,0 -23.25406,0 8.31448,-46.56058 16.54994,-92.67858 24.98492,-139.76875 m 26.70131,-8.367335 c -0.70017,-3.609656 -1.40037,-7.219313 -2.10054,-10.829124 -0.76474,0.02169 -1.52951,0.04182 -2.29425,0.06351 -4.87733,30.860539 -9.75469,61.721039 -14.8073,93.690709 11.17274,0.22369 21.38293,0.71258 32.18324,-0.19472 -4.40826,-27.89622 -8.58751,-54.34341 -12.98115,-82.730686 z"
   id="path16"
   style="stroke-width:1.11134" />&#10;<path
   fill="#78d4f8"
   opacity="1"
   stroke="none"
   d="m 1471.8281,149.76421 c -5.7957,32.30551 -11.4111,63.63294 -17.0764,95.23842 -9.3756,0 -18.0507,0 -27.6918,0 -11.6503,-64.58531 -23.2716,-129.00918 -35.0408,-194.25376 8.5695,0 16.1336,0 24.4711,0 7.804,51.03568 15.586,101.92698 23.3679,152.81862 0.6157,-0.0155 1.2314,-0.0186 1.8472,-0.0294 7.8112,-50.67197 15.6224,-101.34392 23.5371,-152.686786 8.0645,0 15.9402,0 24.5267,0 -5.9928,33.045584 -11.8768,65.489806 -17.941,98.911856 z"
   id="path17"
   style="stroke-width:1.11134" />&#10;<path
   fill="#78d5f8"
   opacity="1"
   stroke="none"
   d="m 1759.3033,210.80368 c 5.0314,-16.20596 1.2041,-29.35901 -8.3968,-40.69004 -4.3145,-5.09166 -9.3818,-9.38384 -14.0004,-14.16692 -5.8978,-6.10816 -12.1306,-11.91115 -17.4339,-18.61589 -11.9954,-15.16555 -14.9914,-33.43365 -11.7282,-52.68127 2.9301,-17.282808 11.9319,-30.212526 27.4764,-35.327745 17.1703,-5.650239 33.2015,-2.676865 47.7225,11.755426 -3.1814,6.613129 -6.2374,12.965998 -9.3404,19.416365 -4.5872,-2.897624 -8.2873,-6.067978 -12.4713,-7.697962 -7.8281,-3.049666 -16.0022,-4.127761 -22.8067,2.810147 -7.077,7.215797 -9.485,16.659227 -6.564,26.684689 1.7805,6.11188 4.9299,12.14352 8.7062,17.018 5.0022,6.45685 11.323,11.62627 16.8828,17.5742 5.5515,5.93903 11.4708,11.62941 16.1639,18.351 12.7813,18.30605 15.2502,39.18465 9.3953,60.98495 -4.6889,17.45902 -15.5291,28.58061 -31.86,31.9277 -18.8061,3.8541 -35.1444,-1.54428 -49.4184,-17.34129 3.8057,-6.84428 7.2507,-13.03981 11.0684,-19.90562 9.397,8.53742 18.6602,16.45196 31.2799,14.12525 7.1293,-1.3144 11.8451,-6.34332 15.3247,-14.22099 z"
   id="path18"
   style="stroke-width:1.11134" />&#10;<path
   fill="#76d7fb"
   opacity="1"
   stroke="none"
   d="m 1536.6008,245.43374 c -10.1396,0 -19.2293,0 -29.0845,0 0,-65.02556 0,-129.54438 0,-194.678859 22.089,0 44.0117,0 66.6446,0 0,7.250713 0,14.399714 0,22.768751 -14.374,0 -28.5666,0 -43.2987,0 0,20.535836 0,39.881628 0,60.352668 13.5873,0 27.0999,0 41.3896,0 0,8.1938 0,15.29105 0,23.59007 -13.7875,0 -27.3099,0 -41.3803,0 0,21.68598 0,42.20953 0,63.99015 14.101,0 28.2747,0 43.2083,0 0,8.34983 0,15.48875 0,23.97722 -12.1189,0 -24.2738,0 -37.479,0 z"
   id="path19"
   style="stroke-width:1.11134" />&#10;<path
   fill="#78d5f8"
   opacity="1"
   stroke="none"
   d="m 484.02894,210.14703 c 1.46495,-4.87479 2.62457,-8.914 4.06547,-13.93347 6.48963,2.68331 12.52256,5.17763 18.84365,7.79107 -1.87837,12.65626 -5.72942,23.39105 -12.76771,32.41876 -13.82494,17.73258 -38.94366,17.39054 -54.08918,-0.63125 -9.70181,-11.54434 -14.32328,-25.94439 -16.80175,-41.01179 -5.48697,-33.35702 -5.92283,-66.86908 1.49631,-99.928065 2.2506,-10.028408 6.3254,-19.923796 11.1809,-28.781304 13.90464,-25.365018 51.94219,-28.538377 65.63832,5.528033 1.84605,4.591817 3.35219,9.352995 5.44969,15.257096 -6.55108,2.755961 -12.5781,5.291488 -19.09999,8.035212 -2.14499,-5.154086 -3.74447,-9.852123 -5.95863,-14.158074 -6.81918,-13.261561 -20.14314,-14.226837 -26.76999,-0.926254 -4.47396,8.979574 -7.40629,19.506165 -8.74865,29.712566 -3.72667,28.33424 -3.6615,56.82425 1.26362,85.0797 0.92778,5.32309 2.4516,10.59568 4.28813,15.62538 2.8937,7.92507 7.35981,14.84433 15.76606,15.17165 8.5418,0.33212 13.14154,-6.13868 16.24375,-15.24926 z"
   id="path20"
   style="stroke-width:1.11134" />&#10;<path
   fill="#79d2f4"
   opacity="1"
   stroke="none"
   d="m 1960.9893,122.16575 c -8.5039,-24.009286 -16.648,-47.2047 -25.1376,-71.383606 8.9299,0 16.8174,0 25.747,0 8.2657,26.968095 16.6665,54.376916 25.0673,81.785646 0.6599,-0.0635 1.32,-0.12702 1.9802,-0.19147 8.3438,-27.08512 16.6875,-54.17011 25.1615,-81.678213 7.9018,0 15.513,0 24.5859,0 -1.164,3.917241 -2.0495,7.414435 -3.2283,10.784264 -10.5561,30.174945 -20.9917,60.405009 -31.8735,90.434119 -2.8324,7.81679 -4.0462,15.54421 -3.9693,23.87916 0.2078,22.60412 0.071,45.21226 0.071,68.74443 -7.784,0 -14.9283,0 -22.9048,0 -0.2544,-2.61004 -0.7789,-5.55127 -0.7899,-8.49498 -0.074,-19.92375 -0.2338,-39.85122 0.05,-59.77032 0.1248,-8.7831 -1.1855,-16.93651 -4.3795,-24.98566 -3.6785,-9.26983 -6.7082,-18.85904 -10.3795,-29.12337 z"
   id="path21"
   style="stroke-width:1.11134" />&#10;<path
   fill="#79d2f4"
   opacity="1"
   stroke="none"
   d="M 651.84277,118.81246 C 643.79538,95.897911 635.99432,73.847389 627.8221,50.747786 c 9.21184,0 17.10785,0 25.80996,0 8.23655,26.936602 16.54701,54.114784 24.85749,81.292854 0.70249,0.12083 1.40497,0.24011 2.10739,0.36031 8.39757,-27.14631 16.79507,-54.292657 25.29285,-81.763257 8.01775,0 15.63306,0 24.70817,0 -1.28574,4.112301 -2.26963,7.622228 -3.46898,11.038235 -10.71257,30.513186 -21.64183,60.934712 -32.05693,91.572922 -2.17103,6.38684 -3.32969,13.53304 -3.49013,20.37174 -0.45785,19.51356 -0.16108,39.0488 -0.16127,58.57537 -6e-5,3.84527 0,7.69054 0,12.40252 -7.8757,0 -15.03149,0 -22.95912,0 -0.24548,-2.75317 -0.72929,-5.71718 -0.73887,-8.68319 -0.0673,-20.69782 0.21314,-41.40246 -0.18435,-62.09099 -0.12425,-6.4677 -1.31762,-13.15181 -3.20698,-19.28367 -3.63347,-11.79219 -8.1134,-23.26121 -12.48856,-35.72817 z"
   id="path22"
   style="stroke-width:1.11134" />&#10;<path
   fill="#7ad0f1"
   opacity="1"
   stroke="none"
   d="m 1904.8976,123.06405 c 0,40.98418 0,80.79544 0,121.51553 -8.0708,0 -15.5224,0 -24.0435,0 0,-56.68673 0,-113.17948 0,-170.642422 -9.3306,0 -17.6374,0 -26.6535,0 0,-8.184868 0,-15.391479 0,-23.231461 25.79,0 51.2424,0 77.6064,0 0.1629,3.979143 0.4319,7.747425 0.4376,11.516264 0.01,3.424109 -0.2759,6.848651 -0.4716,11.167738 -8.8633,0 -17.1536,0 -26.8754,0 0,16.785771 0,32.643661 0,49.674351 z"
   id="path23"
   style="stroke-width:1.11134" />&#10;<path
   fill="#7bceef"
   opacity="1"
   stroke="none"
   d="m 1832.647,139.48327 c 0,35.77175 0,70.37098 0,105.49039 -8.3052,0 -15.5421,0 -23.4293,0 0,-64.74765 0,-129.21055 0,-194.28886 7.6592,0 14.8766,0 23.4294,0 0,29.334495 0,58.48017 -10e-5,88.79847 z"
   id="path24"
   style="stroke-width:1.11134" />&#10;<path
   fill="#76d8fc"
   opacity="1"
   stroke="none"
   d="m 1350.8888,212.18499 c 0,-54.2034 0,-107.23691 0,-161.152159 7.5794,0 14.7409,0 22.0054,0 1.9266,7.791806 2.5528,176.086189 0.5521,193.720869 -7.0604,0 -14.2123,0 -22.5575,0 0,-10.58205 0,-20.99045 0,-32.56871 z"
   id="path25"
   style="stroke-width:1.11134" />&#10;<path
   fill="#000000"
   opacity="1"
   stroke="none"
   d="m 2167.9541,222.38272 c 1.8278,1.06824 3.2943,2.93379 4.7339,5.59077 -1.7164,-1.07026 -3.4062,-2.93179 -4.7339,-5.59077 z"
   id="path26"
   style="stroke-width:1.11134" />&#10;<path
   fill="#000000"
   opacity="1"
   stroke="none"
   d="m 2172.3357,229.34147 c 1.1452,0.3281 2.0842,1.4109 2.791,3.2574 -1.154,-0.32484 -2.0754,-1.41384 -2.791,-3.2574 z"
   id="path27"
   style="stroke-width:1.11134" />&#10;<path
   fill="#000000"
   opacity="1"
   stroke="none"
   d="m 2178.437,240.63811 c 1.0803,0.37038 2.4701,1.45396 3.3439,3.47644 -1.3555,-0.29526 -2.1949,-1.52941 -3.3439,-3.47644 z"
   id="path28"
   style="stroke-width:1.11134" />&#10;<path
   fill="#000000"
   opacity="1"
   stroke="none"
   d="m 2166.017,218.99101 c 0.8475,-0.21175 1.5263,0.49741 2.3179,1.97322 -0.7538,0.16048 -1.62,-0.44598 -2.3179,-1.97322 z"
   id="path29"
   style="stroke-width:1.11134" />&#10;<path
   fill="#000000"
   opacity="1"
   stroke="none"
   d="m 2174.8149,233.88259 c 0.6926,-0.34668 1.431,0.0186 2.1324,1.13981 -0.7207,0.36078 -1.4035,-0.0341 -2.1324,-1.13981 z"
   id="path30"
   style="stroke-width:1.11134" />&#10;<path
   fill="#000000"
   opacity="1"
   stroke="none"
   d="m 2176.8018,236.62089 c 0.645,-0.0496 1.313,0.91117 1.4441,2.32377 -0.8317,-0.13632 -1.1264,-0.72512 -1.4441,-2.32377 z"
   id="path31"
   style="stroke-width:1.11134" />&#10;<path
   fill="#000000"
   opacity="1"
   stroke="none"
   d="m 2195.7466,267.14249 c 0.6638,-0.0744 1.3279,0.85044 1.448,2.25236 -0.8451,-0.0991 -1.1465,-0.67618 -1.448,-2.25236 z"
   id="path32"
   style="stroke-width:1.11134" />&#10;<path
   fill="#ce1f02"
   opacity="1"
   stroke="none"
   d="m 268.99107,164.93539 c 7.97787,12.54891 7.39529,25.82108 5.17837,38.90256 -2.05678,12.13655 -8.73956,17.53678 -20.01481,18.03233 -4.13406,0.18186 -8.27994,0.0294 -13.14496,0.0294 0,-21.44695 0,-42.15701 0,-63.58011 9.74948,-0.77036 19.46225,-3.06531 27.9814,6.61579 z"
   id="path33"
   style="stroke-width:1.11134" />&#10;<path
   fill="#cb260d"
   opacity="1"
   stroke="none"
   d="m 258.5564,74.239661 c 8.38355,2.894402 12.62974,9.254071 13.47903,17.361888 0.88134,8.413801 1.00449,17.227271 -0.25495,25.543801 -1.65646,10.93833 -7.53471,15.94262 -17.4659,17.01892 -4.1419,0.44877 -8.35569,0.0744 -12.42312,0.0744 -2.09708,-8.7402 -2.49216,-46.586755 -0.62657,-60.19881 5.40128,0 10.91742,0 17.29151,0.199568 z"
   id="path34"
   style="stroke-width:1.11134" />&#10;<path
   fill="#ce1f02"
   opacity="1"
   stroke="none"
   d="m 1015.6959,189.45416 c -1.0488,3.91901 -1.7349,6.94885 -2.7139,9.85677 -6.5806,19.54392 -15.60529,25.2185 -34.76759,21.72858 0,-48.66267 0,-97.46596 0,-146.171512 20.9206,-4.802972 29.68589,4.443075 35.18839,23.304421 2.6733,9.163251 4.1701,18.977111 4.7974,28.609731 1.3424,20.61584 1.4073,41.28749 -2.5043,62.67201 z"
   id="path35"
   style="stroke-width:1.11134" />&#10;<path
   fill="#cb260d"
   opacity="1"
   stroke="none"
   d="m 885.72828,74.861275 c 7.77523,3.813577 11.34095,10.219129 13.23283,18.084252 2.583,10.738503 2.7379,21.558333 0.1766,32.266783 -3.57187,14.93396 -10.157,20.43244 -24.12278,20.60748 -2.70505,0.0341 -5.41472,-0.38169 -8.68733,-0.63357 0,-23.75443 0,-46.935572 0,-71.681982 6.37515,0.329054 12.49492,0.64488 19.40068,1.357037 z"
   id="path36"
   style="stroke-width:1.11134" />&#10;<path
   fill="#cc240a"
   opacity="1"
   stroke="none"
   d="m 1625.0278,90.421773 c 0,-5.773282 0,-10.398606 0,-14.844252 19.8587,-6.107991 31.2958,1.396414 34.0985,22.988828 1.0747,8.278261 0.7799,17.105051 -0.5157,25.365811 -2.3873,15.21992 -10.1229,21.66364 -24.1381,21.89801 -2.7203,0.0465 -5.4458,-0.28379 -9.4447,-0.51352 0,-18.2425 0,-35.99491 0,-54.894877 z"
   id="path37"
   style="stroke-width:1.11134" />&#10;<path
   fill="#cc240a"
   opacity="1"
   stroke="none"
   d="m 772.44798,93.718981 c 0.69394,-3.148652 1.24877,-5.34741 1.80368,-7.546323 7.80698,30.249272 11.59999,61.085612 17.11112,93.243962 -10.88111,0.58446 -21.07792,0.42398 -32.18504,0.11153 4.49112,-29.02364 8.81119,-56.94183 13.27024,-85.809634 z"
   id="path38"
   style="stroke-width:1.11134" />&#10;<path
   fill="#cc240a"
   opacity="1"
   stroke="none"
   d="m 363.467,97.531257 c 4.28645,27.417253 8.4657,53.864433 12.87396,81.760663 -10.80031,0.90729 -21.0105,0.4184 -32.18324,0.19472 5.05261,-31.96968 9.92997,-62.83018 14.8073,-93.690718 0.76474,-0.02169 1.52951,-0.04182 2.29425,-0.06351 0.70017,3.609812 1.40037,7.219469 2.20773,11.799157 z"
   id="path39"
   style="stroke-width:1.11134" />&#10;</svg>
